<?xml version="1.0" encoding="UTF-8"?>
<svg id="AVA_Golf_Logo" xmlns="http://www.w3.org/2000/svg" version="1.1" viewBox="0 0 770.96 278.22">
  <!-- Generator: Adobe Illustrator 30.5.0, SVG Export Plug-In . SVG Version: 2.1.4 Build 167)  -->
  <g id="stacked-wordmark">
    <g>
      <path d="M230.2,2.52c-.82-1.55-2.43-2.52-4.19-2.52h-60.01c-1.76,0-3.37.97-4.19,2.52l-61.25,115.88c-1.67,3.15.62,6.95,4.19,6.95h28.15c1.76,0,3.37-.97,4.19-2.53l6.28-11.95c.82-1.56,2.43-2.53,4.19-2.53h96.89c1.76,0,3.37.97,4.19,2.53l6.29,11.95c.82,1.56,2.43,2.53,4.19,2.53h28.14c3.57,0,5.85-3.8,4.19-6.95L230.2,2.52ZM223.68,78.44h-55.35c-3.57,0-5.85-3.79-4.19-6.95l20.6-39.05c.82-1.55,2.43-2.53,4.19-2.53h14c1.75,0,3.36.97,4.18,2.51l20.76,39.05c1.68,3.15-.61,6.96-4.18,6.96h0Z"/>
      <path d="M451.57,0h-27.96c-1.75,0-3.37.97-4.19,2.52l-47.83,90.4c-.82,1.55-2.43,2.52-4.19,2.52h-13.99c-1.75,0-3.37-.97-4.19-2.52L301.39,2.52c-.82-1.55-2.43-2.52-4.19-2.52h-27.97c-3.57,0-5.86,3.8-4.19,6.95l61.25,115.88c.82,1.55,2.43,2.52,4.19,2.52h59.84c1.76,0,3.37-.97,4.19-2.52L455.75,6.95c1.67-3.15-.62-6.95-4.19-6.95h0Z"/>
      <path d="M558.73,2.52c-.82-1.55-2.43-2.52-4.19-2.52h-60.01c-1.76,0-3.37.97-4.19,2.52l-61.25,115.88c-1.67,3.15.62,6.95,4.19,6.95h28.14c1.76,0,3.37-.97,4.19-2.53l6.29-11.95c.82-1.56,2.43-2.53,4.19-2.53h96.89c1.76,0,3.37.97,4.19,2.53l6.29,11.95c.82,1.56,2.43,2.53,4.19,2.53h28.14c3.57,0,5.85-3.8,4.19-6.95L558.73,2.52ZM552.21,78.44h-55.35c-3.57,0-5.85-3.79-4.19-6.95l20.6-39.05c.82-1.55,2.43-2.53,4.19-2.53h13.99c1.75,0,3.36.97,4.18,2.51l20.76,39.05c1.68,3.15-.61,6.96-4.18,6.96h0Z"/>
    </g>
    <g>
      <path d="M358.76,164.64c-7.5-5.27-17.07-9.14-28.7-11.6s-25.52-3.69-41.67-3.69-30.05,1.23-41.67,3.69c-11.63,2.47-21.2,6.33-28.7,11.6-7.51,5.27-13.04,11.97-16.58,20.1-3.55,8.14-5.33,17.82-5.33,29.04s1.78,20.91,5.33,29.04,9.08,14.81,16.58,20.02c7.5,5.22,17.07,9.08,28.7,11.6,11.63,2.52,25.52,3.78,41.67,3.78s30.04-1.26,41.67-3.78c11.63-2.52,21.2-6.39,28.7-11.6s13.03-11.88,16.58-20.02c3.55-8.13,5.33-17.81,5.33-29.04s-1.78-20.91-5.33-29.04-9.08-14.83-16.58-20.1h0ZM349.56,232.86c-2.4,5.27-6.19,9.57-11.34,12.89-5.16,3.32-11.83,5.76-20.02,7.3-8.19,1.55-18.13,2.32-29.81,2.32s-21.63-.77-29.81-2.32c-8.19-1.55-14.86-3.98-20.02-7.3-5.15-3.32-8.94-7.62-11.34-12.89-2.41-5.27-3.61-11.63-3.61-19.07s1.2-13.8,3.61-19.07c2.4-5.27,6.19-9.57,11.34-12.89,5.16-3.32,11.83-5.76,20.02-7.3,8.19-1.55,18.13-2.32,29.81-2.32s21.62.77,29.81,2.32,14.86,3.98,20.02,7.3c5.15,3.32,8.94,7.62,11.34,12.89,2.41,5.27,3.61,11.63,3.61,19.07s-1.2,13.81-3.61,19.07h0Z"/>
      <path d="M542.01,251.08h-103.99c-2.32,0-4.2-1.88-4.2-4.2v-89.04c0-2.32-1.88-4.2-4.2-4.2h-19.09c-2.32,0-4.2,1.88-4.2,4.2v111.89c0,2.32,1.88,4.2,4.2,4.2h131.48c2.32,0,4.2-1.88,4.2-4.2v-14.46c0-2.32-1.88-4.2-4.2-4.2h0Z"/>
      <path d="M716.36,153.64h-137.15c-2.32,0-4.2,1.88-4.2,4.2v111.89c0,2.32,1.88,4.2,4.2,4.2h19.09c2.32,0,4.2-1.88,4.2-4.2v-35.42c0-2.32,1.88-4.2,4.2-4.2h101.07c2.32,0,4.2-1.88,4.2-4.2v-14.46c0-2.32-1.88-4.2-4.2-4.2h-101.07c-2.32,0-4.2-1.88-4.2-4.2v-22.36c0-2.32,1.88-4.2,4.2-4.2h109.66c2.32,0,4.2-1.88,4.2-4.2v-14.46c0-2.32-1.88-4.2-4.2-4.2h0Z"/>
      <path d="M171.45,225.02l-77.01-16.66c-2.62-.57-5.09,1.43-5.09,4.1v14.26c0,1.98,1.38,3.69,3.31,4.1l56.84,12.3v5.37c-4.01.8-8.42,1.57-13.23,2.32s-9.86,1.37-15.12,1.89c-5.27.52-10.6.92-15.98,1.2-5.38.29-10.65.43-15.81.43-9.28,0-17.73-.37-25.35-1.12-7.62-.74-14.12-2.49-19.5-5.24-5.39-2.75-9.57-6.81-12.55-12.2-2.98-5.38-4.47-12.71-4.47-21.99,0-9.97,1.72-17.67,5.16-23.11,3.43-5.44,7.99-9.48,13.66-12.12,5.67-2.63,12.26-4.21,19.76-4.72,7.5-.52,15.27-.78,23.29-.78,11.8,0,22.4.43,31.79,1.29,9.39.86,17.47,1.81,24.23,2.83,5.67.92,10.88,1.93,15.64,3.03,2.65.61,5.15-1.35,5.15-4.07v-14.38c0-1.94-1.24-3.63-3.12-4.09-4.91-1.19-10.52-2.3-16.81-3.33-6.53-1.03-14.52-1.98-23.97-2.84s-20.42-1.29-32.91-1.29c-13.75,0-26.12.83-37.12,2.49-11,1.66-20.37,4.81-28.1,9.45s-13.69,11.09-17.87,19.33c-4.18,8.25-6.27,19.02-6.27,32.31s2.26,24.63,6.79,32.99c4.52,8.36,10.77,14.81,18.73,19.33,7.97,4.53,17.39,7.53,28.27,9.02,10.88,1.49,22.74,2.24,35.57,2.24,9.05,0,18.18-.46,27.41-1.37,9.22-.92,17.75-2.04,25.61-3.35,7.84-1.32,14.66-2.66,20.45-4.04,3.75-.9,6.75-1.67,8.99-2.32,1.8-.52,2.96-2.15,2.96-4.02v-33.14c0-1.98-1.38-3.69-3.31-4.1h-.02Z"/>
    </g>
    <g id="TradeMark">
      <polygon points="726.34 255 732.64 255 732.64 273.93 736.9 273.93 736.9 255 743.16 255 743.16 250.99 726.34 250.99 726.34 255"/>
      <polygon points="765.51 250.99 758.7 268.25 758.59 268.25 751.73 250.99 746.3 250.99 746.3 273.93 750.48 273.93 750.48 261.6 750.35 257.71 750.47 257.71 756.95 273.93 760.3 273.93 766.81 257.71 766.9 257.71 766.79 261.6 766.79 273.93 770.96 273.93 770.96 250.99 765.51 250.99"/>
    </g>
  </g>
</svg>