<?xml version="1.0" encoding="UTF-8"?>
<svg id="AVA_Golf_Logo" xmlns="http://www.w3.org/2000/svg" version="1.1" xmlns:xlink="http://www.w3.org/1999/xlink" viewBox="0 0 747.78 315.5">
  <!-- Generator: Adobe Illustrator 30.5.0, SVG Export Plug-In . SVG Version: 2.1.4 Build 167)  -->
  <defs>
    <style>
      .st0 {
        fill: #16382e;
      }

      .st1 {
        fill: #fff;
      }

      .st2 {
        fill: #349683;
      }

      .st3 {
        fill: url(#linear-gradient);
      }
    </style>
    <linearGradient id="linear-gradient" x1="297.52" y1="128.4" x2="297.52" y2="318" gradientTransform="translate(0 318) scale(1 -1)" gradientUnits="userSpaceOnUse">
      <stop offset="0" stop-color="#359683"/>
      <stop offset="1" stop-color="#16382e"/>
    </linearGradient>
  </defs>
  <g id="wordmark">
    <g id="TradeMark">
      <polygon class="st0" points="722.49 302.34 726.06 302.34 726.06 313.07 728.47 313.07 728.47 302.34 732.02 302.34 732.02 300.07 722.49 300.07 722.49 302.34"/>
      <polygon class="st0" points="744.69 300.07 740.83 309.85 740.77 309.85 736.88 300.07 733.8 300.07 733.8 313.07 736.17 313.07 736.17 306.08 736.1 303.88 736.16 303.88 739.84 313.07 741.74 313.07 745.42 303.88 745.48 303.88 745.42 306.08 745.42 313.07 747.78 313.07 747.78 300.07 744.69 300.07"/>
    </g>
  </g>
  <g id="stacked-logo">
    <g>
      <path class="st0" d="M73.33,245.33c-.46-.87-1.37-1.42-2.36-1.42h-33.8c-.99,0-1.9.55-2.36,1.42L.31,310.59c-.94,1.78.35,3.91,2.36,3.91h15.85c.99,0,1.9-.55,2.36-1.43l3.54-6.73c.46-.88,1.37-1.43,2.36-1.43h54.57c.99,0,1.9.55,2.36,1.42l3.54,6.73c.46.88,1.37,1.42,2.36,1.42h15.85c2.01,0,3.3-2.14,2.36-3.91l-34.5-65.27v.03ZM69.65,288.08h-31.18c-2.01,0-3.3-2.14-2.36-3.91l11.6-22c.46-.88,1.37-1.42,2.36-1.42h7.88c.99,0,1.89.54,2.36,1.42l11.69,22c.94,1.78-.34,3.92-2.36,3.92h.01Z"/>
      <path class="st0" d="M198,243.91h-15.75c-.99,0-1.9.55-2.36,1.42l-26.94,50.92c-.46.87-1.37,1.42-2.36,1.42h-7.88c-.99,0-1.9-.55-2.36-1.42l-26.94-50.92c-.46-.87-1.37-1.42-2.36-1.42h-15.75c-2.01,0-3.3,2.14-2.36,3.91l34.5,65.27c.46.87,1.37,1.42,2.36,1.42h33.7c.99,0,1.9-.55,2.36-1.42l34.49-65.27c.94-1.78-.35-3.91-2.36-3.91h.01Z"/>
      <path class="st0" d="M258.36,245.33c-.46-.87-1.37-1.42-2.36-1.42h-33.8c-.99,0-1.9.55-2.36,1.42l-34.5,65.27c-.94,1.78.35,3.91,2.36,3.91h15.85c.99,0,1.9-.55,2.36-1.43l3.54-6.73c.46-.88,1.37-1.43,2.36-1.43h54.57c.99,0,1.9.55,2.36,1.42l3.54,6.73c.46.88,1.37,1.42,2.36,1.42h15.85c2.01,0,3.3-2.14,2.36-3.91l-34.5-65.27v.02ZM254.69,288.08h-31.18c-2.01,0-3.3-2.14-2.36-3.91l11.6-22c.46-.87,1.37-1.42,2.36-1.42h7.88c.99,0,1.89.54,2.36,1.42l11.69,22c.94,1.78-.34,3.92-2.36,3.92h0Z"/>
      <path class="st0" d="M515.17,251.53c-4.23-2.97-9.62-5.15-16.16-6.53-6.55-1.38-14.37-2.08-23.47-2.08s-16.92.69-23.47,2.08-11.94,3.57-16.16,6.53c-4.23,2.97-7.34,6.74-9.34,11.32-2,4.58-3,10.03-3,16.36s1,11.78,3,16.36,5.11,8.34,9.34,11.27c4.23,2.94,9.61,5.11,16.16,6.53,6.55,1.42,14.37,2.13,23.47,2.13s16.92-.71,23.47-2.13,11.94-3.6,16.16-6.53c4.23-2.94,7.34-6.69,9.34-11.27s3-10.03,3-16.36-1-11.77-3-16.36c-2-4.58-5.11-8.35-9.34-11.32h0ZM509.99,289.95c-1.35,2.97-3.48,5.39-6.39,7.26-2.9,1.87-6.66,3.24-11.28,4.11-4.61.87-10.21,1.31-16.79,1.31s-12.18-.43-16.79-1.31c-4.61-.87-8.37-2.24-11.28-4.11-2.9-1.87-5.03-4.29-6.39-7.26-1.36-2.97-2.03-6.55-2.03-10.74s.68-7.77,2.03-10.74,3.48-5.39,6.39-7.26c2.9-1.87,6.66-3.24,11.28-4.11,4.61-.87,10.21-1.31,16.79-1.31s12.18.43,16.79,1.31c4.61.87,8.37,2.24,11.28,4.11,2.9,1.87,5.03,4.29,6.39,7.26,1.36,2.97,2.03,6.55,2.03,10.74s-.68,7.78-2.03,10.74h0Z"/>
      <path class="st0" d="M618.38,300.21h-58.57c-1.31,0-2.37-1.06-2.37-2.37v-50.15c0-1.31-1.06-2.37-2.37-2.37h-10.75c-1.31,0-2.37,1.06-2.37,2.37v63.02c0,1.31,1.06,2.37,2.37,2.37h74.05c1.31,0,2.37-1.06,2.37-2.37v-8.14c0-1.31-1.06-2.37-2.37-2.37h.01Z"/>
      <path class="st0" d="M716.58,245.33h-77.25c-1.31,0-2.37,1.06-2.37,2.37v63.02c0,1.31,1.06,2.37,2.37,2.37h10.75c1.31,0,2.37-1.06,2.37-2.37v-19.95c0-1.31,1.06-2.37,2.37-2.37h56.92c1.31,0,2.37-1.06,2.37-2.37v-8.14c0-1.31-1.06-2.37-2.37-2.37h-56.92c-1.31,0-2.37-1.06-2.37-2.37v-12.59c0-1.31,1.06-2.37,2.37-2.37h61.76c1.31,0,2.37-1.06,2.37-2.37v-8.14c0-1.31-1.06-2.37-2.37-2.37v.02Z"/>
      <path class="st0" d="M409.67,285.53l-43.37-9.39c-1.47-.32-2.87.8-2.87,2.31v8.03c0,1.11.78,2.08,1.86,2.31l32.01,6.93v3.03c-2.26.45-4.74.89-7.45,1.31-2.71.42-5.55.77-8.52,1.07-2.97.29-5.97.52-9,.68s-6,.24-8.9.24c-5.23,0-9.99-.21-14.28-.63s-7.95-1.41-10.99-2.95c-3.03-1.55-5.39-3.84-7.07-6.87s-2.52-7.16-2.52-12.39c0-5.61.97-9.95,2.9-13.02,1.93-3.06,4.5-5.34,7.69-6.82s6.9-2.37,11.13-2.66,8.6-.44,13.12-.44c6.64,0,12.62.24,17.91.73,5.29.49,9.84,1.02,13.65,1.6,3.19.52,6.13,1.09,8.81,1.7,1.49.34,2.9-.76,2.9-2.29v-8.1c0-1.09-.7-2.05-1.76-2.3-2.77-.67-5.92-1.29-9.47-1.88-3.68-.58-8.18-1.11-13.5-1.6-5.32-.48-11.5-.73-18.53-.73-7.74,0-14.71.47-20.91,1.41s-11.47,2.71-15.83,5.32-7.71,6.24-10.07,10.89c-2.36,4.65-3.53,10.71-3.53,18.2s1.27,13.87,3.82,18.58c2.55,4.71,6.06,8.34,10.55,10.89,4.49,2.55,9.79,4.24,15.92,5.08s12.81,1.26,20.03,1.26c5.1,0,10.24-.26,15.44-.77,5.19-.52,10-1.15,14.42-1.89,4.42-.74,8.26-1.5,11.52-2.27,2.11-.5,3.8-.94,5.06-1.3,1.01-.29,1.67-1.21,1.67-2.27v-18.67c0-1.11-.78-2.08-1.87-2.31l.03-.02Z"/>
    </g>
    <g id="icon">
      <path class="st3" d="M202.93,189.6h81.48L392.12,0h-65.84c-9.74,0-18.79,5.54-23.98,14.66l-99.38,174.94h.01Z"/>
      <circle class="st1" cx="291.6" cy="105.43" r="35.35"/>
      <path class="st2" d="M515.76,189.6h-81.48L326.56,0h65.84c9.74,0,18.79,5.54,23.98,14.66l99.38,174.94Z"/>
    </g>
  </g>
</svg>