<?xml version="1.0" encoding="UTF-8"?>
<svg id="AVA_Golf_Logo" xmlns="http://www.w3.org/2000/svg" version="1.1" xmlns:xlink="http://www.w3.org/1999/xlink" viewBox="0 0 456.14 455.9">
  <!-- Generator: Adobe Illustrator 30.5.0, SVG Export Plug-In . SVG Version: 2.1.4 Build 167)  -->
  <defs>
    <style>
      .st0 {
        fill: #fff;
      }

      .st1 {
        fill: url(#linear-gradient);
      }
    </style>
    <linearGradient id="linear-gradient" x1="127.13" y1="203.19" x2="127.13" y2="458" gradientTransform="translate(0 458) scale(1 -1)" gradientUnits="userSpaceOnUse">
      <stop offset="0" stop-color="#fff"/>
      <stop offset="1" stop-color="#fff" stop-opacity="0"/>
    </linearGradient>
  </defs>
  <g id="stacked-logo-small">
    <g>
      <g>
        <path class="st0" d="M136.2,299.07c-.47-.88-1.38-1.44-2.38-1.44h-34.14c-1,0-1.92.55-2.38,1.44l-34.84,65.91c-.95,1.79.35,3.95,2.38,3.95h16.01c1,0,1.92-.55,2.38-1.44l3.57-6.8c.47-.89,1.38-1.44,2.38-1.44h55.11c1,0,1.92.55,2.38,1.44l3.58,6.8c.47.88,1.38,1.44,2.38,1.44h16.01c2.03,0,3.33-2.16,2.38-3.95l-34.84-65.91h.02,0ZM132.49,342.25h-31.49c-2.03,0-3.33-2.16-2.38-3.95l11.72-22.21c.47-.88,1.38-1.44,2.38-1.44h7.96c1,0,1.91.55,2.38,1.43l11.81,22.21c.95,1.79-.35,3.96-2.38,3.96h0Z"/>
        <path class="st0" d="M262.11,297.64h-15.9c-1,0-1.91.55-2.38,1.43l-27.21,51.42c-.47.88-1.38,1.43-2.38,1.43h-7.96c-1,0-1.91-.55-2.38-1.43l-27.21-51.42c-.47-.88-1.38-1.43-2.38-1.43h-15.91c-2.03,0-3.33,2.16-2.38,3.95l34.84,65.91c.47.88,1.38,1.43,2.38,1.43h34.04c1,0,1.92-.55,2.38-1.44l34.84-65.91c.95-1.79-.35-3.95-2.38-3.95h0Z"/>
        <path class="st0" d="M323.07,299.07c-.47-.88-1.38-1.44-2.38-1.44h-34.14c-1,0-1.92.55-2.38,1.44l-34.84,65.91c-.95,1.79.35,3.95,2.38,3.95h16.01c1,0,1.92-.55,2.38-1.44l3.58-6.8c.47-.89,1.38-1.44,2.38-1.44h55.11c1,0,1.92.55,2.38,1.44l3.58,6.8c.47.88,1.38,1.44,2.38,1.44h16.01c2.03,0,3.33-2.16,2.38-3.95l-34.84-65.91h.01ZM319.36,342.25h-31.49c-2.03,0-3.33-2.16-2.38-3.95l11.72-22.21c.47-.88,1.38-1.44,2.38-1.44h7.96c1,0,1.91.55,2.38,1.43l11.81,22.21c.95,1.79-.35,3.96-2.38,3.96h0Z"/>
      </g>
      <g>
        <path class="st0" d="M209.32,391.29c-4.27-3-9.71-5.2-16.32-6.6-6.62-1.4-14.52-2.1-23.7-2.1s-17.09.7-23.7,2.1c-6.62,1.4-12.06,3.6-16.32,6.6-4.27,3-7.42,6.81-9.43,11.43-2.02,4.63-3.03,10.13-3.03,16.52s1.01,11.89,3.03,16.52c2.02,4.63,5.16,8.42,9.43,11.39s9.71,5.17,16.32,6.6,14.52,2.15,23.7,2.15,17.09-.72,23.7-2.15,12.06-3.63,16.32-6.6c4.27-2.96,7.41-6.76,9.43-11.39,2.02-4.63,3.03-10.13,3.03-16.52s-1.01-11.89-3.03-16.52c-2.02-4.63-5.17-8.44-9.43-11.43ZM204.09,430.09c-1.37,3-3.52,5.44-6.45,7.33-2.93,1.89-6.73,3.27-11.39,4.15s-10.31,1.32-16.96,1.32-12.3-.44-16.96-1.32c-4.66-.88-8.45-2.26-11.39-4.15-2.93-1.89-5.08-4.33-6.45-7.33s-2.05-6.61-2.05-10.85.68-7.85,2.05-10.85c1.37-3,3.52-5.44,6.45-7.33,2.93-1.89,6.73-3.27,11.39-4.15s10.31-1.32,16.96-1.32,12.3.44,16.96,1.32c4.66.88,8.45,2.27,11.39,4.15,2.93,1.89,5.08,4.33,6.45,7.33s2.05,6.61,2.05,10.85-.68,7.85-2.05,10.85Z"/>
        <path class="st0" d="M313.56,440.46h-59.15c-1.32,0-2.39-1.07-2.39-2.39v-50.65c0-1.32-1.07-2.39-2.39-2.39h-10.86c-1.32,0-2.39,1.07-2.39,2.39v63.65c0,1.32,1.07,2.39,2.39,2.39h74.79c1.32,0,2.39-1.07,2.39-2.39v-8.22c0-1.32-1.07-2.39-2.39-2.39h0Z"/>
        <path class="st0" d="M412.73,385.03h-78.01c-1.32,0-2.39,1.07-2.39,2.39v63.65c0,1.32,1.07,2.39,2.39,2.39h10.86c1.32,0,2.39-1.07,2.39-2.39v-20.15c0-1.32,1.07-2.39,2.39-2.39h57.49c1.32,0,2.39-1.07,2.39-2.39v-8.22c0-1.32-1.07-2.39-2.39-2.39h-57.49c-1.32,0-2.39-1.07-2.39-2.39v-12.72c0-1.32,1.07-2.39,2.39-2.39h62.38c1.32,0,2.39-1.07,2.39-2.39v-8.22c0-1.32-1.07-2.39-2.39-2.39h-.01Z"/>
        <path class="st0" d="M102.78,425.63l-43.81-9.48c-1.49-.32-2.89.81-2.89,2.33v8.11c0,1.12.78,2.1,1.88,2.33l32.33,7v3.06c-2.28.46-4.79.9-7.53,1.32-2.74.43-5.61.78-8.6,1.08-3,.29-6.03.52-9.09.68-3.06.17-6.06.25-8.99.25-5.28,0-10.09-.21-14.42-.63-4.33-.42-8.03-1.42-11.09-2.98-3.07-1.56-5.44-3.88-7.14-6.94-1.7-3.06-2.54-7.23-2.54-12.51,0-5.67.98-10.05,2.93-13.15,1.95-3.09,4.54-5.39,7.77-6.89s6.97-2.39,11.24-2.69c4.27-.29,8.68-.44,13.25-.44,6.71,0,12.74.25,18.08.73,5.34.49,9.94,1.03,13.78,1.61,3.22.52,6.19,1.1,8.9,1.72,1.51.35,2.93-.77,2.93-2.32v-8.18c0-1.1-.71-2.07-1.78-2.33-2.79-.68-5.98-1.31-9.56-1.9-3.72-.59-8.26-1.12-13.64-1.62-5.38-.49-11.62-.73-18.72-.73-7.82,0-14.86.47-21.11,1.42-6.26.94-11.58,2.73-15.98,5.37-4.4,2.64-7.79,6.31-10.17,11s-3.57,10.82-3.57,18.38,1.29,14.01,3.86,18.77c2.57,4.76,6.13,8.42,10.65,11,4.53,2.57,9.89,4.29,16.08,5.13,6.19.85,12.93,1.27,20.23,1.27,5.15,0,10.34-.26,15.59-.78s10.1-1.16,14.56-1.91,8.34-1.51,11.63-2.3c2.14-.51,3.84-.95,5.11-1.32,1.02-.3,1.68-1.22,1.68-2.29v-18.85c0-1.12-.78-2.1-1.88-2.33h.03,0Z"/>
      </g>
    </g>
  </g>
  <g id="TradeMark">
    <polygon class="st0" points="421.36 438.72 426.27 438.72 426.27 453.48 429.59 453.48 429.59 438.72 434.47 438.72 434.47 435.59 421.36 435.59 421.36 438.72"/>
    <polygon class="st0" points="451.89 435.59 446.58 449.04 446.5 449.04 441.15 435.59 436.92 435.59 436.92 453.48 440.18 453.48 440.18 443.86 440.08 440.83 440.17 440.83 445.22 453.48 447.83 453.48 452.9 440.83 452.98 440.83 452.89 443.86 452.89 453.48 456.14 453.48 456.14 435.59 451.89 435.59"/>
  </g>
  <g id="icon">
    <g id="icon1">
      <path class="st1" d="M0,254.81h109.51L254.26,0h-88.48c-13.09,0-25.25,7.44-32.22,19.71L0,254.81Z"/>
      <circle class="st0" cx="119.18" cy="141.69" r="47.51"/>
      <path class="st0" d="M420.42,254.81h-109.51L166.16,0h88.48c13.09,0,25.25,7.44,32.22,19.71l133.56,235.1Z"/>
    </g>
  </g>
</svg>