<?xml version="1.0" encoding="UTF-8"?>
<svg id="AVA_Golf_Logo" xmlns="http://www.w3.org/2000/svg" version="1.1" xmlns:xlink="http://www.w3.org/1999/xlink" viewBox="0 0 610.97 327.5">
  <!-- Generator: Adobe Illustrator 30.4.0, SVG Export Plug-In . SVG Version: 2.1.4 Build 226)  -->
  <defs>
    <style>
      .st0 {
        fill: #fff;
      }

      .st1 {
        fill: url(#linear-gradient1);
      }

      .st2 {
        fill: url(#linear-gradient);
      }
    </style>
    <linearGradient id="linear-gradient" x1="163.45" y1="327.6" x2="163.45" y2="0" gradientUnits="userSpaceOnUse">
      <stop offset="0" stop-color="#16382e"/>
      <stop offset="1" stop-color="#16382e" stop-opacity="0"/>
    </linearGradient>
    <linearGradient id="linear-gradient1" x1="213.62" y1="163.8" x2="540.52" y2="163.8" gradientUnits="userSpaceOnUse">
      <stop offset="0" stop-color="#ffff4a"/>
      <stop offset="1" stop-color="#ffe708"/>
    </linearGradient>
  </defs>
  <g id="icon">
    <path class="st2" d="M0,327.6h140.79S326.89,0,326.89,0h-113.76c-16.82,0-32.47,9.57-41.43,25.34L0,327.6Z"/>
    <circle class="st0" cx="153.22" cy="182.17" r="61.08"/>
    <path class="st1" d="M540.52,327.6h-140.79L213.62,0h113.76c16.82,0,32.47,9.57,41.43,25.34l171.71,302.26Z"/>
    <g id="TradeMark">
      <polygon class="st0" points="555.08 303.88 562.97 303.88 562.97 327.6 568.31 327.6 568.31 303.88 576.15 303.88 576.15 298.86 555.08 298.86 555.08 303.88"/>
      <polygon class="st0" points="604.15 298.86 595.62 320.48 595.48 320.48 586.89 298.86 580.09 298.86 580.09 327.6 585.32 327.6 585.32 312.15 585.16 307.27 585.3 307.27 593.43 327.6 597.63 327.6 605.77 307.27 605.89 307.27 605.75 312.15 605.75 327.6 610.97 327.6 610.97 298.86 604.15 298.86"/>
    </g>
  </g>
</svg>