<?xml version="1.0" encoding="UTF-8"?>
<svg id="AVA_Golf_Logo" xmlns="http://www.w3.org/2000/svg" version="1.1" xmlns:xlink="http://www.w3.org/1999/xlink" viewBox="0 0 753.42 168">
  <!-- Generator: Adobe Illustrator 30.4.0, SVG Export Plug-In . SVG Version: 2.1.4 Build 226)  -->
  <defs>
    <style>
      .st0 {
        fill: #fff;
      }

      .st1 {
        fill: url(#linear-gradient1);
      }

      .st2 {
        fill: url(#linear-gradient);
      }
    </style>
    <linearGradient id="linear-gradient" x1="82.03" y1="164.92" x2="82.03" y2=".5" gradientUnits="userSpaceOnUse">
      <stop offset="0" stop-color="#16382e"/>
      <stop offset="1" stop-color="#16382e" stop-opacity="0"/>
    </linearGradient>
    <linearGradient id="linear-gradient1" x1="107.22" y1="82.71" x2="271.28" y2="82.71" gradientUnits="userSpaceOnUse">
      <stop offset="0" stop-color="#ffff4a"/>
      <stop offset="1" stop-color="#ffe708"/>
    </linearGradient>
  </defs>
  <g id="side-by-side">
    <g>
      <g>
        <path class="st0" d="M368.74,2.01c-.49-.93-1.46-1.51-2.51-1.51h-36.02c-1.05,0-2.02.58-2.51,1.51l-36.76,69.55c-1,1.89.37,4.17,2.51,4.17h16.89c1.05,0,2.02-.59,2.52-1.52l3.77-7.17c.49-.93,1.46-1.52,2.52-1.52h58.16c1.06,0,2.02.58,2.52,1.52l3.78,7.17c.49.93,1.46,1.52,2.51,1.52h16.89c2.14,0,3.51-2.28,2.51-4.17L368.74,2.01ZM364.83,47.58h-33.22c-2.14,0-3.51-2.28-2.51-4.17l12.37-23.44c.49-.93,1.46-1.52,2.51-1.52h8.4c1.05,0,2.02.58,2.51,1.51l12.46,23.44c1.01,1.89-.37,4.18-2.51,4.18Z"/>
        <path class="st0" d="M501.61.5h-16.78c-1.05,0-2.02.58-2.51,1.51l-28.71,54.26c-.49.93-1.46,1.51-2.51,1.51h-8.4c-1.05,0-2.02-.58-2.51-1.51l-28.71-54.26c-.49-.93-1.46-1.51-2.51-1.51h-16.79c-2.14,0-3.51,2.28-2.51,4.17l36.76,69.55c.49.93,1.46,1.51,2.51,1.51h35.92c1.05,0,2.02-.58,2.51-1.51L504.12,4.67c1-1.89-.37-4.17-2.51-4.17Z"/>
        <path class="st0" d="M565.94,2.01c-.49-.93-1.46-1.51-2.51-1.51h-36.02c-1.05,0-2.02.58-2.51,1.51l-36.76,69.55c-1,1.89.37,4.17,2.51,4.17h16.89c1.06,0,2.02-.58,2.52-1.52l3.77-7.17c.49-.93,1.46-1.52,2.52-1.52h58.16c1.05,0,2.02.58,2.51,1.52l3.78,7.17c.49.93,1.46,1.52,2.52,1.52h16.89c2.14,0,3.51-2.28,2.51-4.17L565.94,2.01ZM562.02,47.58h-33.23c-2.14,0-3.51-2.28-2.51-4.17l12.37-23.44c.49-.93,1.46-1.52,2.51-1.52h8.4c1.05,0,2.02.58,2.51,1.51l12.46,23.44c1.01,1.89-.37,4.18-2.51,4.18Z"/>
      </g>
      <g>
        <path class="st0" d="M505.94,99.32c-4.5-3.16-10.25-5.48-17.23-6.96-6.98-1.48-15.32-2.22-25.01-2.22s-18.03.74-25.01,2.22c-6.98,1.48-12.72,3.8-17.23,6.96-4.51,3.16-7.82,7.18-9.95,12.07-2.13,4.88-3.2,10.69-3.2,17.43s1.07,12.55,3.2,17.43c2.13,4.88,5.45,8.89,9.95,12.01,4.5,3.13,10.24,5.45,17.23,6.96,6.98,1.51,15.32,2.27,25.01,2.27s18.03-.76,25.01-2.27c6.98-1.51,12.72-3.83,17.23-6.96,4.5-3.13,7.82-7.13,9.95-12.01,2.13-4.88,3.2-10.69,3.2-17.43s-1.07-12.55-3.2-17.43c-2.13-4.88-5.45-8.9-9.95-12.07ZM500.42,140.27c-1.44,3.16-3.71,5.74-6.81,7.74-3.1,2-7.1,3.45-12.02,4.38-4.92.93-10.88,1.39-17.9,1.39s-12.98-.46-17.9-1.39c-4.92-.93-8.92-2.39-12.02-4.38-3.09-2-5.36-4.57-6.81-7.74-1.45-3.16-2.17-6.98-2.17-11.45s.72-8.28,2.17-11.45c1.44-3.16,3.71-5.74,6.81-7.74,3.1-1.99,7.1-3.45,12.02-4.38,4.91-.93,10.88-1.39,17.9-1.39s12.98.46,17.9,1.39c4.92.93,8.92,2.39,12.02,4.38,3.09,2,5.36,4.57,6.81,7.74,1.45,3.16,2.17,6.98,2.17,11.45s-.72,8.29-2.17,11.45Z"/>
        <path class="st0" d="M615.93,151.2h-62.42c-1.39,0-2.52-1.13-2.52-2.52v-53.44c0-1.39-1.13-2.52-2.52-2.52h-11.46c-1.39,0-2.52,1.13-2.52,2.52v67.16c0,1.39,1.13,2.52,2.52,2.52h78.92c1.39,0,2.52-1.13,2.52-2.52v-8.68c0-1.39-1.13-2.52-2.52-2.52Z"/>
        <path class="st0" d="M720.58,92.72h-82.32c-1.39,0-2.52,1.13-2.52,2.52v67.16c0,1.39,1.13,2.52,2.52,2.52h11.46c1.39,0,2.52-1.13,2.52-2.52v-21.26c0-1.39,1.13-2.52,2.52-2.52h60.66c1.39,0,2.52-1.13,2.52-2.52v-8.68c0-1.39-1.13-2.52-2.52-2.52h-60.66c-1.39,0-2.52-1.13-2.52-2.52v-13.42c0-1.39,1.13-2.52,2.52-2.52h65.82c1.39,0,2.52-1.13,2.52-2.52v-8.68c0-1.39-1.13-2.52-2.52-2.52Z"/>
        <path class="st0" d="M393.51,135.56l-46.22-10c-1.57-.34-3.05.86-3.05,2.46v8.56c0,1.19.83,2.21,1.99,2.46l34.12,7.38v3.23c-2.41.48-5.05.94-7.94,1.39-2.89.45-5.92.82-9.08,1.14-3.16.31-6.36.55-9.59.72-3.23.17-6.39.26-9.49.26-5.57,0-10.64-.22-15.21-.67-4.57-.45-8.48-1.5-11.71-3.15-3.23-1.65-5.74-4.09-7.53-7.32-1.79-3.23-2.68-7.63-2.68-13.2,0-5.98,1.03-10.61,3.1-13.87,2.06-3.26,4.79-5.69,8.2-7.27,3.4-1.58,7.36-2.53,11.86-2.83,4.5-.31,9.16-.47,13.98-.47,7.08,0,13.44.26,19.08.77,5.64.52,10.48,1.08,14.54,1.7,3.4.55,6.53,1.16,9.39,1.82,1.59.37,3.09-.81,3.09-2.44v-8.63c0-1.16-.74-2.18-1.87-2.45-2.95-.71-6.31-1.38-10.09-2-3.92-.62-8.71-1.19-14.39-1.7-5.67-.51-12.26-.77-19.75-.77-8.25,0-15.68.5-22.28,1.5-6.6,1-12.22,2.89-16.87,5.67-4.64,2.79-8.22,6.65-10.73,11.6-2.51,4.95-3.77,11.42-3.77,19.39s1.36,14.79,4.08,19.8c2.71,5.02,6.46,8.89,11.24,11.6,4.78,2.72,10.44,4.52,16.97,5.42,6.53.89,13.65,1.34,21.35,1.34,5.43,0,10.91-.28,16.45-.82,5.53-.55,10.66-1.22,15.37-2.01,4.71-.79,8.8-1.6,12.27-2.42,2.25-.54,4.05-1,5.39-1.39,1.08-.31,1.78-1.29,1.78-2.41v-19.89c0-1.19-.83-2.21-1.99-2.46Z"/>
      </g>
    </g>
    <g id="icon">
      <path class="st2" d="M0,164.92h70.66S164.07.5,164.07.5h-57.1c-8.44,0-16.3,4.8-20.79,12.72L0,164.92Z"/>
      <circle class="st0" cx="76.9" cy="91.93" r="30.66"/>
      <path class="st1" d="M271.28,164.92h-70.66L107.22.5h57.1c8.44,0,16.3,4.8,20.79,12.72l86.18,151.71Z"/>
    </g>
    <g id="TradeMark">
      <polygon class="st0" points="726.72 153.59 730.48 153.59 730.48 164.92 733.04 164.92 733.04 153.59 736.79 153.59 736.79 151.19 726.72 151.19 726.72 153.59"/>
      <polygon class="st0" points="750.16 151.19 746.09 161.52 746.02 161.52 741.91 151.19 738.66 151.19 738.66 164.92 741.17 164.92 741.17 157.54 741.09 155.21 741.16 155.21 745.04 164.92 747.05 164.92 750.94 155.21 751 155.21 750.93 157.54 750.93 164.92 753.42 164.92 753.42 151.19 750.16 151.19"/>
    </g>
  </g>
</svg>