<?xml version="1.0" encoding="UTF-8"?>
<svg id="Logo" xmlns="http://www.w3.org/2000/svg" version="1.1" viewBox="0 0 794.13 77.1">
  <!-- Generator: Adobe Illustrator 30.5.0, SVG Export Plug-In . SVG Version: 2.1.4 Build 167)  -->
  <defs>
    <style>
      .st0 {
        fill: #16382e;
      }
    </style>
  </defs>
  <g id="wordmark">
    <path class="st0" d="M77.88,2.57c-.49-.93-1.46-1.51-2.51-1.51h-35.9c-1.05,0-2.01.58-2.5,1.51L.33,71.89c-1,1.89.37,4.16,2.51,4.16h16.84c1.05,0,2.02-.58,2.51-1.51l3.76-7.15c.49-.93,1.46-1.51,2.51-1.51h57.96c1.05,0,2.02.58,2.51,1.51l3.76,7.15c.49.93,1.46,1.51,2.51,1.51h16.83c2.13,0,3.5-2.27,2.5-4.16L77.88,2.57ZM73.98,47.98h-33.11c-2.13,0-3.5-2.27-2.51-4.16l12.33-23.36c.49-.93,1.46-1.51,2.51-1.51h8.37c1.05,0,2.01.58,2.5,1.5l12.42,23.36c1,1.89-.36,4.16-2.5,4.16Z"/>
    <path class="st0" d="M210.31,1.06h-16.73c-1.05,0-2.01.58-2.5,1.51l-28.62,54.08c-.49.93-1.45,1.51-2.5,1.51h-8.37c-1.05,0-2.01-.58-2.5-1.51L120.47,2.56c-.49-.93-1.45-1.51-2.5-1.51h-16.73c-2.13,0-3.5,2.27-2.51,4.16l36.64,69.32c.49.93,1.45,1.51,2.5,1.51h35.8c1.05,0,2.01-.58,2.51-1.51L212.81,5.21c1-1.89-.37-4.16-2.51-4.16Z"/>
    <path class="st0" d="M274.42,2.57c-.49-.93-1.46-1.51-2.51-1.51h-35.9c-1.05,0-2.01.58-2.5,1.51l-36.64,69.32c-1,1.89.37,4.16,2.5,4.16h16.84c1.05,0,2.02-.58,2.51-1.51l3.76-7.15c.49-.93,1.46-1.51,2.51-1.51h57.96c1.05,0,2.02.58,2.51,1.51l3.76,7.15c.49.93,1.46,1.51,2.51,1.51h16.83c2.13,0,3.5-2.27,2.5-4.16L274.42,2.57ZM270.51,47.98h-33.11c-2.13,0-3.5-2.27-2.51-4.16l12.32-23.36c.49-.93,1.46-1.51,2.51-1.51h8.37c1.05,0,2.01.58,2.5,1.5l12.42,23.36c1,1.89-.36,4.16-2.5,4.16Z"/>
    <path class="st0" d="M547.18,9.15c-4.49-3.15-10.21-5.46-17.17-6.94-6.96-1.47-15.27-2.21-24.93-2.21s-17.97.74-24.93,2.21c-6.96,1.48-12.68,3.79-17.17,6.94-4.49,3.15-7.8,7.16-9.92,12.03-2.12,4.87-3.19,10.66-3.19,17.37s1.06,12.51,3.19,17.37c2.12,4.87,5.43,8.86,9.92,11.97,4.49,3.12,10.21,5.43,17.17,6.94,6.95,1.51,15.27,2.26,24.93,2.26s17.97-.75,24.93-2.26c6.95-1.51,12.68-3.82,17.17-6.94,4.49-3.12,7.8-7.11,9.92-11.97,2.12-4.87,3.19-10.66,3.19-17.37s-1.06-12.51-3.19-17.37c-2.12-4.87-5.43-8.87-9.92-12.03ZM541.68,49.96c-1.44,3.15-3.7,5.72-6.78,7.71-3.09,1.99-7.08,3.44-11.98,4.37-4.9.93-10.85,1.39-17.84,1.39s-12.94-.46-17.84-1.39c-4.9-.93-8.89-2.38-11.98-4.37-3.08-1.99-5.35-4.56-6.78-7.71-1.44-3.15-2.16-6.95-2.16-11.41s.72-8.26,2.16-11.41c1.44-3.15,3.7-5.72,6.78-7.71,3.09-1.99,7.08-3.44,11.98-4.37,4.9-.93,10.85-1.39,17.84-1.39s12.94.46,17.84,1.39c4.9.93,8.89,2.38,11.98,4.37,3.08,1.99,5.35,4.56,6.78,7.71,1.44,3.15,2.16,6.95,2.16,11.41s-.72,8.26-2.16,11.41Z"/>
    <path class="st0" d="M656.81,60.86h-62.21c-1.39,0-2.51-1.12-2.51-2.51V5.08c0-1.39-1.12-2.51-2.51-2.51h-11.42c-1.39,0-2.51,1.12-2.51,2.51v66.94c0,1.39,1.12,2.51,2.51,2.51h78.65c1.39,0,2.51-1.12,2.51-2.51v-8.65c0-1.39-1.12-2.51-2.51-2.51Z"/>
    <path class="st0" d="M761.11,2.57h-82.05c-1.39,0-2.51,1.12-2.51,2.51v66.94c0,1.39,1.12,2.51,2.51,2.51h11.42c1.39,0,2.51-1.12,2.51-2.51v-21.19c0-1.39,1.12-2.51,2.51-2.51h60.46c1.39,0,2.51-1.12,2.51-2.51v-8.65c0-1.39-1.12-2.51-2.51-2.51h-60.46c-1.39,0-2.51-1.12-2.51-2.51v-13.38c0-1.39,1.12-2.51,2.51-2.51h65.6c1.39,0,2.51-1.12,2.51-2.51V5.08c0-1.39-1.12-2.51-2.51-2.51Z"/>
    <path class="st0" d="M435.13,45.27l-46.07-9.97c-1.57-.34-3.04.85-3.04,2.46v8.53c0,1.18.82,2.21,1.98,2.46l34,7.36v3.21c-2.4.48-5.04.94-7.92,1.39-2.88.45-5.9.82-9.05,1.13-3.15.31-6.34.55-9.56.72-3.22.17-6.37.26-9.46.26-5.55,0-10.61-.22-15.16-.67-4.56-.45-8.45-1.49-11.67-3.14-3.22-1.64-5.72-4.08-7.51-7.3-1.78-3.22-2.67-7.61-2.67-13.16,0-5.96,1.03-10.57,3.09-13.83,2.05-3.25,4.78-5.67,8.17-7.25,3.39-1.57,7.33-2.52,11.82-2.82,4.49-.31,9.13-.46,13.93-.46,7.06,0,13.4.26,19.02.77,5.62.52,10.45,1.08,14.5,1.7,3.39.55,6.51,1.15,9.36,1.81,1.59.37,3.08-.81,3.08-2.44V7.42c0-1.16-.74-2.17-1.87-2.45-2.94-.71-6.29-1.38-10.06-1.99-3.91-.62-8.69-1.18-14.34-1.7-5.65-.51-12.22-.77-19.69-.77-8.22,0-15.63.5-22.2,1.49-6.58.99-12.18,2.88-16.81,5.65-4.63,2.78-8.19,6.63-10.69,11.56-2.5,4.94-3.75,11.38-3.75,19.33s1.35,14.74,4.06,19.74c2.71,5,6.44,8.86,11.2,11.56,4.76,2.71,10.4,4.51,16.91,5.4,6.51.89,13.6,1.34,21.28,1.34,5.41,0,10.88-.28,16.4-.82,5.52-.55,10.62-1.22,15.32-2.01,4.69-.79,8.77-1.59,12.23-2.41,2.25-.54,4.04-1,5.38-1.39,1.08-.31,1.77-1.29,1.77-2.41v-19.83c0-1.18-.83-2.21-1.98-2.46Z"/>
    <g id="TradeMark">
      <polygon class="st0" points="767.27 63.13 771.06 63.13 771.06 74.53 773.62 74.53 773.62 63.13 777.4 63.13 777.4 60.72 767.27 60.72 767.27 63.13"/>
      <polygon class="st0" points="790.85 60.72 786.75 71.11 786.68 71.11 782.56 60.72 779.29 60.72 779.29 74.53 781.8 74.53 781.8 67.1 781.73 64.76 781.79 64.76 785.7 74.53 787.72 74.53 791.63 64.76 791.69 64.76 791.62 67.1 791.62 74.53 794.13 74.53 794.13 60.72 790.85 60.72"/>
    </g>
  </g>
</svg>