<?xml version="1.0" encoding="UTF-8"?>
<svg id="AVA_Golf_Logo" xmlns="http://www.w3.org/2000/svg" xmlns:xlink="http://www.w3.org/1999/xlink" version="1.1" viewBox="0 0 701.73 158.32">
  <!-- Generator: Adobe Illustrator 30.4.0, SVG Export Plug-In . SVG Version: 2.1.4 Build 226)  -->
  <defs>
    <style>
      .st0 {
        fill: url(#linear-gradient);
      }

      .st1 {
        fill: #fff;
      }
    </style>
    <linearGradient id="linear-gradient" x1="112.41" y1="373.94" x2="112.41" y2="220.8" gradientTransform="translate(-36 -221.15)" gradientUnits="userSpaceOnUse">
      <stop offset="0" stop-color="#fff"/>
      <stop offset="1" stop-color="#fff" stop-opacity="0"/>
    </linearGradient>
  </defs>
  <g id="side-by-side">
    <g>
      <g>
        <path class="st1" d="M343.44,1.06c-.46-.87-1.36-1.41-2.34-1.41h-33.55c-.98,0-1.88.54-2.34,1.41l-34.24,64.78c-.93,1.76.34,3.88,2.34,3.88h15.73c.98,0,1.88-.55,2.35-1.42l3.51-6.68c.46-.87,1.36-1.42,2.35-1.42h54.17c.99,0,1.88.54,2.35,1.42l3.52,6.68c.46.87,1.36,1.42,2.34,1.42h15.73c1.99,0,3.27-2.12,2.34-3.88L343.44,1.06ZM339.8,43.5h-30.94c-1.99,0-3.27-2.12-2.34-3.88l11.52-21.83c.46-.87,1.36-1.42,2.34-1.42h7.82c.98,0,1.88.54,2.34,1.41l11.61,21.83c.94,1.76-.34,3.89-2.34,3.89h0Z"/>
        <path class="st1" d="M467.19-.35h-15.63c-.98,0-1.88.54-2.34,1.41l-26.74,50.54c-.46.87-1.36,1.41-2.34,1.41h-7.82c-.98,0-1.88-.54-2.34-1.41L383.25,1.06c-.46-.87-1.36-1.41-2.34-1.41h-15.64c-1.99,0-3.27,2.12-2.34,3.88l34.24,64.78c.46.87,1.36,1.41,2.34,1.41h33.46c.98,0,1.88-.54,2.34-1.41L469.53,3.54c.93-1.76-.34-3.88-2.34-3.88Z"/>
        <path class="st1" d="M527.11,1.06c-.46-.87-1.36-1.41-2.34-1.41h-33.55c-.98,0-1.88.54-2.34,1.41l-34.24,64.78c-.93,1.76.34,3.88,2.34,3.88h15.73c.99,0,1.88-.54,2.35-1.42l3.51-6.68c.46-.87,1.36-1.42,2.35-1.42h54.17c.98,0,1.88.54,2.34,1.42l3.52,6.68c.46.87,1.36,1.42,2.35,1.42h15.73c1.99,0,3.27-2.12,2.34-3.88L527.11,1.06ZM523.46,43.5h-30.95c-1.99,0-3.27-2.12-2.34-3.88l11.52-21.83c.46-.87,1.36-1.42,2.34-1.42h7.82c.98,0,1.88.54,2.34,1.41l11.61,21.83c.94,1.76-.34,3.89-2.34,3.89h0Z"/>
      </g>
      <g>
        <path class="st1" d="M471.23,91.69c-4.19-2.94-9.55-5.1-16.05-6.48-6.5-1.38-14.27-2.07-23.29-2.07s-16.79.69-23.29,2.07-11.85,3.54-16.05,6.48c-4.2,2.94-7.28,6.69-9.27,11.24-1.98,4.55-2.98,9.96-2.98,16.23s1,11.69,2.98,16.23c1.98,4.55,5.08,8.28,9.27,11.19,4.19,2.92,9.54,5.08,16.05,6.48,6.5,1.41,14.27,2.11,23.29,2.11s16.79-.71,23.29-2.11c6.5-1.41,11.85-3.57,16.05-6.48,4.19-2.92,7.28-6.64,9.27-11.19,1.98-4.55,2.98-9.96,2.98-16.23s-1-11.69-2.98-16.23-5.08-8.29-9.27-11.24ZM466.09,129.84c-1.34,2.94-3.46,5.35-6.34,7.21s-6.61,3.21-11.2,4.08c-4.58.87-10.13,1.29-16.67,1.29s-12.09-.43-16.67-1.29c-4.58-.87-8.31-2.23-11.2-4.08-2.88-1.86-4.99-4.26-6.34-7.21-1.35-2.94-2.02-6.5-2.02-10.66s.67-7.71,2.02-10.66c1.34-2.94,3.46-5.35,6.34-7.21,2.89-1.85,6.61-3.21,11.2-4.08,4.57-.87,10.13-1.29,16.67-1.29s12.09.43,16.67,1.29c4.58.87,8.31,2.23,11.2,4.08,2.88,1.86,4.99,4.26,6.34,7.21,1.35,2.94,2.02,6.5,2.02,10.66s-.67,7.72-2.02,10.66Z"/>
        <path class="st1" d="M573.67,140.02h-58.14c-1.29,0-2.35-1.05-2.35-2.35v-49.77c0-1.29-1.05-2.35-2.35-2.35h-10.67c-1.29,0-2.35,1.05-2.35,2.35v62.55c0,1.29,1.05,2.35,2.35,2.35h73.51c1.29,0,2.35-1.05,2.35-2.35v-8.08c0-1.29-1.05-2.35-2.35-2.35h0Z"/>
        <path class="st1" d="M671.14,85.55h-76.67c-1.29,0-2.35,1.05-2.35,2.35v62.55c0,1.29,1.05,2.35,2.35,2.35h10.67c1.29,0,2.35-1.05,2.35-2.35v-19.8c0-1.29,1.05-2.35,2.35-2.35h56.5c1.29,0,2.35-1.05,2.35-2.35v-8.08c0-1.29-1.05-2.35-2.35-2.35h-56.5c-1.29,0-2.35-1.05-2.35-2.35v-12.5c0-1.29,1.05-2.35,2.35-2.35h61.3c1.29,0,2.35-1.05,2.35-2.35v-8.08c0-1.29-1.05-2.35-2.35-2.35h0Z"/>
        <path class="st1" d="M366.51,125.45l-43.05-9.31c-1.46-.32-2.84.8-2.84,2.29v7.97c0,1.11.77,2.06,1.85,2.29l31.78,6.87v3.01c-2.24.45-4.7.88-7.4,1.29s-5.51.76-8.46,1.06c-2.94.29-5.92.51-8.93.67s-5.95.24-8.84.24c-5.19,0-9.91-.2-14.17-.62-4.26-.42-7.9-1.4-10.91-2.93-3.01-1.54-5.35-3.81-7.01-6.82-1.67-3.01-2.5-7.11-2.5-12.29,0-5.57.96-9.88,2.89-12.92,1.92-3.04,4.46-5.3,7.64-6.77,3.17-1.47,6.86-2.36,11.05-2.64,4.19-.29,8.53-.44,13.02-.44,6.59,0,12.52.24,17.77.72,5.25.48,9.76,1.01,13.54,1.58,3.17.51,6.08,1.08,8.75,1.7,1.48.34,2.88-.75,2.88-2.27v-8.04c0-1.08-.69-2.03-1.74-2.28-2.75-.66-5.88-1.29-9.4-1.86-3.65-.58-8.11-1.11-13.4-1.58-5.28-.48-11.42-.72-18.39-.72-7.68,0-14.6.47-20.75,1.4s-11.38,2.69-15.71,5.28c-4.32,2.6-7.66,6.19-9.99,10.8s-3.51,10.64-3.51,18.06,1.27,13.78,3.8,18.44c2.52,4.68,6.02,8.28,10.47,10.8,4.45,2.53,9.72,4.21,15.81,5.05,6.08.83,12.71,1.25,19.89,1.25,5.06,0,10.16-.26,15.32-.76,5.15-.51,9.93-1.14,14.32-1.87,4.39-.74,8.2-1.49,11.43-2.25,2.1-.5,3.77-.93,5.02-1.29,1.01-.29,1.66-1.2,1.66-2.24v-18.53c0-1.11-.77-2.06-1.85-2.29v-.04h0Z"/>
      </g>
    </g>
    <g id="icon">
      <path class="st0" d="M0,152.79h65.81L152.81-.35h-53.18c-7.86,0-15.18,4.47-19.36,11.85L0,152.79Z"/>
      <circle class="st1" cx="71.62" cy="84.81" r="28.56"/>
      <path class="st1" d="M252.67,152.79h-65.81L99.86-.35h53.18c7.86,0,15.18,4.47,19.36,11.85l80.27,141.3h0Z"/>
    </g>
    <g id="TradeMark">
      <polygon class="st1" points="676.86 142.24 680.36 142.24 680.36 152.79 682.74 152.79 682.74 142.24 686.24 142.24 686.24 140.01 676.86 140.01 676.86 142.24"/>
      <polygon class="st1" points="698.69 140.01 694.9 149.63 694.83 149.63 691.01 140.01 687.98 140.01 687.98 152.79 690.32 152.79 690.32 145.92 690.24 143.75 690.31 143.75 693.92 152.79 695.79 152.79 699.42 143.75 699.47 143.75 699.41 145.92 699.41 152.79 701.73 152.79 701.73 140.01 698.69 140.01"/>
    </g>
  </g>
</svg>