<?xml version="1.0" encoding="UTF-8"?>
<svg id="AVA_Golf_Logo" xmlns="http://www.w3.org/2000/svg" xmlns:xlink="http://www.w3.org/1999/xlink" version="1.1" viewBox="0 0 420 404.8">
  <!-- Generator: Adobe Illustrator 30.4.0, SVG Export Plug-In . SVG Version: 2.1.4 Build 226)  -->
  <defs>
    <style>
      .st0 {
        fill: url(#linear-gradient);
      }

      .st1 {
        fill: #fff;
      }
    </style>
    <linearGradient id="linear-gradient" x1="216.11" y1="389.79" x2="216.11" y2="165.35" gradientTransform="translate(-96 -165.65)" gradientUnits="userSpaceOnUse">
      <stop offset="0" stop-color="#fff"/>
      <stop offset="1" stop-color="#fff" stop-opacity="0"/>
    </linearGradient>
  </defs>
  <g id="stacked-logo-small">
    <g>
      <g>
        <path class="st1" d="M128.1,263.12c-.41-.78-1.22-1.27-2.1-1.27h-30.07c-.88,0-1.69.48-2.1,1.27l-30.69,58.05c-.84,1.58.31,3.48,2.1,3.48h14.1c.88,0,1.69-.48,2.1-1.27l3.14-5.99c.41-.78,1.22-1.27,2.1-1.27h48.54c.88,0,1.69.48,2.1,1.27l3.15,5.99c.41.78,1.22,1.27,2.1,1.27h14.1c1.79,0,2.93-1.9,2.1-3.48l-30.69-58.05h.02,0ZM124.83,301.16h-27.74c-1.79,0-2.93-1.9-2.1-3.48l10.32-19.56c.41-.78,1.22-1.27,2.1-1.27h7.01c.88,0,1.68.48,2.1,1.26l10.4,19.56c.84,1.58-.31,3.49-2.1,3.49h0Z"/>
        <path class="st1" d="M239,261.86h-14c-.88,0-1.68.48-2.1,1.26l-23.97,45.29c-.41.78-1.22,1.26-2.1,1.26h-7.01c-.88,0-1.68-.48-2.1-1.26l-23.97-45.29c-.41-.78-1.22-1.26-2.1-1.26h-14.01c-1.79,0-2.93,1.9-2.1,3.48l30.69,58.05c.41.78,1.22,1.26,2.1,1.26h29.98c.88,0,1.69-.48,2.1-1.27l30.69-58.05c.84-1.58-.31-3.48-2.1-3.48h0Z"/>
        <path class="st1" d="M292.69,263.12c-.41-.78-1.22-1.27-2.1-1.27h-30.07c-.88,0-1.69.48-2.1,1.27l-30.69,58.05c-.84,1.58.31,3.48,2.1,3.48h14.1c.88,0,1.69-.48,2.1-1.27l3.15-5.99c.41-.78,1.22-1.27,2.1-1.27h48.54c.88,0,1.69.48,2.1,1.27l3.15,5.99c.41.78,1.22,1.27,2.1,1.27h14.1c1.79,0,2.93-1.9,2.1-3.48l-30.69-58.05h0ZM289.42,301.16h-27.74c-1.79,0-2.93-1.9-2.1-3.48l10.32-19.56c.41-.78,1.22-1.27,2.1-1.27h7.01c.88,0,1.68.48,2.1,1.26l10.4,19.56c.84,1.58-.31,3.49-2.1,3.49h0Z"/>
      </g>
      <g>
        <path class="st1" d="M192.5,344.35c-3.76-2.64-8.55-4.58-14.37-5.81-5.83-1.23-12.79-1.85-20.88-1.85s-15.05.62-20.88,1.85c-5.83,1.23-10.62,3.17-14.37,5.81-3.76,2.64-6.54,6-8.31,10.07-1.78,4.08-2.67,8.92-2.67,14.55s.89,10.47,2.67,14.55c1.78,4.08,4.54,7.42,8.31,10.03s8.55,4.55,14.37,5.81,12.79,1.89,20.88,1.89,15.05-.63,20.88-1.89,10.62-3.2,14.37-5.81c3.76-2.61,6.53-5.95,8.31-10.03,1.78-4.08,2.67-8.92,2.67-14.55s-.89-10.47-2.67-14.55c-1.78-4.08-4.55-7.43-8.31-10.07ZM187.89,378.53c-1.21,2.64-3.1,4.79-5.68,6.46-2.58,1.66-5.93,2.88-10.03,3.66s-9.08,1.16-14.94,1.16-10.83-.39-14.94-1.16c-4.1-.78-7.44-1.99-10.03-3.66-2.58-1.66-4.47-3.81-5.68-6.46s-1.81-5.82-1.81-9.56.6-6.91,1.81-9.56c1.21-2.64,3.1-4.79,5.68-6.46,2.58-1.66,5.93-2.88,10.03-3.66s9.08-1.16,14.94-1.16,10.83.39,14.94,1.16c4.1.78,7.44,2,10.03,3.66,2.58,1.66,4.47,3.81,5.68,6.46s1.81,5.82,1.81,9.56-.6,6.91-1.81,9.56Z"/>
        <path class="st1" d="M284.31,387.66h-52.1c-1.16,0-2.11-.94-2.11-2.11v-44.61c0-1.16-.94-2.11-2.11-2.11h-9.57c-1.16,0-2.11.94-2.11,2.11v56.06c0,1.16.94,2.11,2.11,2.11h65.88c1.16,0,2.11-.94,2.11-2.11v-7.24c0-1.16-.94-2.11-2.11-2.11h0Z"/>
        <path class="st1" d="M371.66,338.84h-68.71c-1.16,0-2.11.94-2.11,2.11v56.06c0,1.16.94,2.11,2.11,2.11h9.57c1.16,0,2.11-.94,2.11-2.11v-17.75c0-1.16.94-2.11,2.11-2.11h50.64c1.16,0,2.11-.94,2.11-2.11v-7.24c0-1.16-.94-2.11-2.11-2.11h-50.64c-1.16,0-2.11-.94-2.11-2.11v-11.2c0-1.16.94-2.11,2.11-2.11h54.94c1.16,0,2.11-.94,2.11-2.11v-7.24c0-1.16-.94-2.11-2.11-2.11h0Z"/>
        <path class="st1" d="M98.66,374.6l-38.59-8.35c-1.31-.28-2.55.71-2.55,2.05v7.14c0,.99.69,1.85,1.66,2.05l28.48,6.17v2.7c-2.01.41-4.22.79-6.63,1.16-2.41.38-4.94.69-7.57.95-2.64.26-5.31.46-8.01.6-2.7.15-5.34.22-7.92.22-4.65,0-8.89-.18-12.7-.55-3.81-.37-7.07-1.25-9.77-2.62-2.7-1.37-4.79-3.42-6.29-6.11-1.5-2.7-2.24-6.37-2.24-11.02,0-4.99.86-8.85,2.58-11.58,1.72-2.72,4-4.75,6.84-6.07s6.14-2.11,9.9-2.37c3.76-.26,7.65-.39,11.67-.39,5.91,0,11.22.22,15.92.64,4.7.43,8.76.91,12.14,1.42,2.84.46,5.45.97,7.84,1.51,1.33.31,2.58-.68,2.58-2.04v-7.2c0-.97-.63-1.82-1.57-2.05-2.46-.6-5.27-1.15-8.42-1.67-3.28-.52-7.28-.99-12.01-1.43-4.74-.43-10.23-.64-16.49-.64-6.89,0-13.09.41-18.59,1.25-5.51.83-10.2,2.4-14.08,4.73-3.88,2.33-6.86,5.56-8.96,9.69s-3.14,9.53-3.14,16.19,1.14,12.34,3.4,16.53c2.26,4.19,5.4,7.42,9.38,9.69,3.99,2.26,8.71,3.78,14.16,4.52,5.45.75,11.39,1.12,17.82,1.12,4.54,0,9.11-.23,13.73-.69s8.9-1.02,12.82-1.68,7.35-1.33,10.24-2.03c1.88-.45,3.38-.84,4.5-1.16.9-.26,1.48-1.07,1.48-2.02v-16.6c0-.99-.69-1.85-1.66-2.05h.03,0Z"/>
      </g>
    </g>
  </g>
  <g id="TradeMark">
    <polygon class="st1" points="379.27 386.13 383.59 386.13 383.59 399.13 386.51 399.13 386.51 386.13 390.81 386.13 390.81 383.37 379.27 383.37 379.27 386.13"/>
    <polygon class="st1" points="406.16 383.37 401.48 395.22 401.41 395.22 396.7 383.37 392.97 383.37 392.97 399.13 395.84 399.13 395.84 390.65 395.75 387.98 395.83 387.98 400.28 399.13 402.58 399.13 407.05 387.98 407.12 387.98 407.04 390.65 407.04 399.13 409.9 399.13 409.9 383.37 406.16 383.37"/>
  </g>
  <g id="icon">
    <g id="icon1">
      <path class="st0" d="M8.13,224.14h96.46L232.08-.3h-77.93c-11.53,0-22.24,6.55-28.38,17.36L8.13,224.14Z"/>
      <circle class="st1" cx="113.1" cy="124.5" r="41.85"/>
      <path class="st1" d="M378.44,224.14h-96.46L154.48-.3h77.93c11.53,0,22.24,6.55,28.38,17.36l117.64,207.08Z"/>
    </g>
  </g>
</svg>