<?xml version="1.0" encoding="UTF-8"?>
<svg id="AVA_Golf_Logo" xmlns="http://www.w3.org/2000/svg" xmlns:xlink="http://www.w3.org/1999/xlink" version="1.1" viewBox="0 0 420 455.3">
  <!-- Generator: Adobe Illustrator 30.3.0, SVG Export Plug-In . SVG Version: 2.1.3 Build 182)  -->
  <defs>
    <style>
      .st0 {
        fill: url(#linear-gradient1);
      }

      .st1 {
        fill: url(#linear-gradient);
      }

      .st2 {
        fill: #fff;
      }
    </style>
    <linearGradient id="linear-gradient" x1="127.09" y1="201.4" x2="127.09" y2="456" gradientTransform="translate(0 456) scale(1 -1)" gradientUnits="userSpaceOnUse">
      <stop offset="0" stop-color="#359582"/>
      <stop offset="1" stop-color="#359582" stop-opacity="0"/>
    </linearGradient>
    <linearGradient id="linear-gradient1" x1="166.08" y1="328.7" x2="420.14" y2="328.7" gradientTransform="translate(0 456) scale(1 -1)" gradientUnits="userSpaceOnUse">
      <stop offset="0" stop-color="#f7ed50"/>
      <stop offset="1" stop-color="#fde500"/>
    </linearGradient>
  </defs>
  <g>
    <g>
      <path class="st2" d="M136.2,298.7c-.5-.9-1.4-1.4-2.4-1.4h-34.1c-1,0-1.9.6-2.4,1.4l-34.8,65.8c-.9,1.8.4,3.9,2.4,3.9h16c1,0,1.9-.6,2.4-1.4l3.6-6.8c.5-.9,1.4-1.4,2.4-1.4h55c1,0,1.9.6,2.4,1.4l3.6,6.8c.5.9,1.4,1.4,2.4,1.4h16c2,0,3.3-2.2,2.4-3.9l-34.8-65.8h-.1ZM132.5,341.8h-31.4c-2,0-3.3-2.2-2.4-3.9l11.7-22.2c.5-.9,1.4-1.4,2.4-1.4h8c1,0,1.9.5,2.4,1.4l11.8,22.2c1,1.8-.3,4-2.4,4l-.1-.1Z"/>
      <path class="st2" d="M262,297.3h-15.9c-1,0-1.9.6-2.4,1.4l-27.2,51.4c-.5.9-1.4,1.4-2.4,1.4h-7.9c-1,0-1.9-.6-2.4-1.4l-27.2-51.4c-.5-.9-1.4-1.4-2.4-1.4h-15.9c-2,0-3.3,2.2-2.4,3.9l34.8,65.8c.5.9,1.4,1.4,2.4,1.4h34c1,0,1.9-.6,2.4-1.4l34.8-65.8c.9-1.8-.4-3.9-2.4-3.9h.1Z"/>
      <path class="st2" d="M322.8,298.7c-.5-.9-1.4-1.4-2.4-1.4h-34.1c-1,0-1.9.6-2.4,1.4l-34.8,65.8c-.9,1.8.4,3.9,2.4,3.9h16c1,0,1.9-.6,2.4-1.4l3.6-6.8c.5-.9,1.4-1.4,2.4-1.4h55c1,0,1.9.6,2.4,1.4l3.6,6.8c.5.9,1.4,1.4,2.4,1.4h16c2,0,3.3-2.2,2.4-3.9l-34.8-65.8h-.1ZM319.1,341.8h-31.4c-2,0-3.3-2.2-2.4-3.9l11.7-22.2c.5-.9,1.4-1.4,2.4-1.4h8c1,0,1.9.5,2.4,1.4l11.8,22.2c1,1.8-.3,4-2.4,4l-.1-.1Z"/>
    </g>
    <g>
      <path class="st2" d="M209.2,390.8c-4.3-3-9.7-5.2-16.3-6.6s-14.5-2.1-23.7-2.1-17.1.7-23.7,2.1c-6.6,1.4-12,3.6-16.3,6.6s-7.4,6.8-9.4,11.4-3,10.1-3,16.5,1,11.9,3,16.5,5.2,8.4,9.4,11.4c4.3,3,9.7,5.2,16.3,6.6s14.5,2.1,23.7,2.1,17.1-.7,23.7-2.1c6.6-1.4,12-3.6,16.3-6.6s7.4-6.8,9.4-11.4,3-10.1,3-16.5-1-11.9-3-16.5-5.2-8.4-9.4-11.4ZM204,429.6c-1.4,3-3.5,5.4-6.4,7.3s-6.7,3.3-11.4,4.1c-4.7.9-10.3,1.3-16.9,1.3s-12.3-.4-16.9-1.3c-4.7-.9-8.4-2.3-11.4-4.1-2.9-1.9-5.1-4.3-6.4-7.3-1.4-3-2.1-6.6-2.1-10.8s.7-7.8,2.1-10.8c1.4-3,3.5-5.4,6.4-7.3s6.7-3.3,11.4-4.1c4.7-.9,10.3-1.3,16.9-1.3s12.3.4,16.9,1.3c4.7.9,8.4,2.3,11.4,4.1,2.9,1.9,5.1,4.3,6.4,7.3,1.4,3,2.1,6.6,2.1,10.8s-.7,7.8-2.1,10.8Z"/>
      <path class="st2" d="M313.3,439.9h-59.1c-1.3,0-2.4-1.1-2.4-2.4v-50.6c0-1.3-1.1-2.4-2.4-2.4h-10.8c-1.3,0-2.4,1.1-2.4,2.4v63.6c0,1.3,1.1,2.4,2.4,2.4h74.7c1.3,0,2.4-1.1,2.4-2.4v-8.2c0-1.3-1.1-2.4-2.4-2.4Z"/>
      <path class="st2" d="M412.4,384.6h-77.9c-1.3,0-2.4,1.1-2.4,2.4v63.6c0,1.3,1.1,2.4,2.4,2.4h10.8c1.3,0,2.4-1.1,2.4-2.4v-20.1c0-1.3,1.1-2.4,2.4-2.4h57.4c1.3,0,2.4-1.1,2.4-2.4v-8.2c0-1.3-1.1-2.4-2.4-2.4h-57.4c-1.3,0-2.4-1.1-2.4-2.4v-12.7c0-1.3,1.1-2.4,2.4-2.4h62.3c1.3,0,2.4-1.1,2.4-2.4v-8.2c0-1.3-1.1-2.4-2.4-2.4h0Z"/>
      <path class="st2" d="M102.8,425.1l-43.8-9.5c-1.5-.3-2.9.8-2.9,2.3v8.1c0,1.1.8,2.1,1.9,2.3l32.3,7v3.1c-2.3.5-4.8.9-7.5,1.3s-5.6.8-8.6,1.1c-3,.3-6,.5-9.1.7s-6.1.2-9,.2c-5.3,0-10.1-.2-14.4-.6-4.3-.4-8-1.4-11.1-3s-5.4-3.9-7.1-6.9c-1.7-3.1-2.5-7.2-2.5-12.5s1-10,2.9-13.1c2-3.1,4.5-5.4,7.8-6.9,3.2-1.5,7-2.4,11.2-2.7,4.3-.3,8.7-.4,13.2-.4,6.7,0,12.7.2,18.1.7,5.3.5,9.9,1,13.8,1.6,3.2.5,6.2,1.1,8.9,1.7,1.5.3,2.9-.8,2.9-2.3v-8.2c0-1.1-.7-2.1-1.8-2.3-2.8-.7-6-1.3-9.6-1.9-3.7-.6-8.2-1.1-13.6-1.6s-11.6-.7-18.7-.7-14.8.5-21.1,1.4c-6.2.9-11.6,2.7-16,5.4-4.4,2.6-7.8,6.3-10.2,11-2.4,4.7-3.6,10.8-3.6,18.4s1.3,14,3.9,18.7c2.6,4.8,6.1,8.4,10.6,11s9.9,4.3,16.1,5.1c6.2.8,12.9,1.3,20.2,1.3s10.3-.3,15.6-.8c5.2-.5,10.1-1.2,14.5-1.9,4.5-.7,8.3-1.5,11.6-2.3,2.1-.5,3.8-.9,5.1-1.3,1-.3,1.7-1.2,1.7-2.3v-18.8c0-1.1-.8-2.1-1.9-2.3l.2-.1Z"/>
    </g>
  </g>
  <g id="icon">
    <path class="st1" d="M.06,254.6h109.42L254.12,0h-88.41c-13.08,0-25.23,7.44-32.2,19.69L.06,254.6Z"/>
    <circle class="st2" cx="119.14" cy="141.57" r="47.47"/>
    <path class="st0" d="M420.14,254.6h-109.42L166.08,0h88.41c13.08,0,25.23,7.44,32.2,19.69l133.45,234.91h0Z"/>
  </g>
</svg>