<?xml version="1.0" encoding="UTF-8"?>
<svg id="AVA_Golf_Logo" xmlns="http://www.w3.org/2000/svg" xmlns:xlink="http://www.w3.org/1999/xlink" version="1.1" viewBox="0 0 540 289.25">
  <!-- Generator: Adobe Illustrator 30.4.0, SVG Export Plug-In . SVG Version: 2.1.4 Build 226)  -->
  <defs>
    <style>
      .st0 {
        fill: url(#linear-gradient);
      }

      .st1 {
        fill: #fff;
      }
    </style>
    <linearGradient id="linear-gradient" x1="144.46" y1="961.35" x2="144.46" y2="671.8" gradientTransform="translate(0 -671.8)" gradientUnits="userSpaceOnUse">
      <stop offset="0" stop-color="#fff"/>
      <stop offset="1" stop-color="#fff" stop-opacity="0"/>
    </linearGradient>
  </defs>
  <g id="icon">
    <path class="st0" d="M0,289.55h124.44L288.92,0h-100.55c-14.87,0-28.7,8.46-36.62,22.4L0,289.55Z"/>
    <circle class="st1" cx="135.42" cy="161.01" r="53.98"/>
    <path class="st1" d="M477.73,289.55h-124.44L188.81,0h100.55c14.87,0,28.7,8.46,36.62,22.4l151.76,267.15Z"/>
    <g id="TradeMark">
      <polygon class="st1" points="490.6 268.58 497.58 268.58 497.58 289.55 502.3 289.55 502.3 268.58 509.22 268.58 509.22 264.14 490.6 264.14 490.6 268.58"/>
      <polygon class="st1" points="533.97 264.14 526.43 283.25 526.31 283.25 518.72 264.14 512.71 264.14 512.71 289.55 517.33 289.55 517.33 275.89 517.19 271.58 517.31 271.58 524.5 289.55 528.21 289.55 535.4 271.58 535.51 271.58 535.39 275.89 535.39 289.55 540 289.55 540 264.14 533.97 264.14"/>
    </g>
  </g>
</svg>