<?xml version="1.0" encoding="UTF-8"?>
<svg id="AVA_Golf_Logo" xmlns="http://www.w3.org/2000/svg" xmlns:xlink="http://www.w3.org/1999/xlink" version="1.1" viewBox="0 0 420 420.6">
  <!-- Generator: Adobe Illustrator 30.4.0, SVG Export Plug-In . SVG Version: 2.1.4 Build 226)  -->
  <defs>
    <style>
      .st0 {
        fill: url(#linear-gradient1);
      }

      .st1 {
        fill: url(#linear-gradient);
      }

      .st2 {
        fill: #fff;
      }
    </style>
    <linearGradient id="linear-gradient" x1="213.1" y1="400.35" x2="213.1" y2="165.65" gradientTransform="translate(-96 -165.65)" gradientUnits="userSpaceOnUse">
      <stop offset="0" stop-color="#359683"/>
      <stop offset="1" stop-color="#359683" stop-opacity="0"/>
    </linearGradient>
    <linearGradient id="linear-gradient1" x1="249.05" y1="283" x2="483.23" y2="283" gradientTransform="translate(-96 -165.65)" gradientUnits="userSpaceOnUse">
      <stop offset="0" stop-color="#ffff4a"/>
      <stop offset="1" stop-color="#ffe708"/>
    </linearGradient>
  </defs>
  <g>
    <g>
      <path class="st2" d="M136.2,264c-.5-.9-1.4-1.4-2.4-1.4h-34.1c-1,0-1.9.6-2.4,1.4l-34.8,65.8c-.9,1.8.4,3.9,2.4,3.9h16c1,0,1.9-.6,2.4-1.4l3.6-6.8c.5-.9,1.4-1.4,2.4-1.4h55c1,0,1.9.6,2.4,1.4l3.6,6.8c.5.9,1.4,1.4,2.4,1.4h16c2,0,3.3-2.2,2.4-3.9l-34.8-65.8h-.1,0ZM132.5,307.1h-31.4c-2,0-3.3-2.2-2.4-3.9l11.7-22.2c.5-.9,1.4-1.4,2.4-1.4h8c1,0,1.9.5,2.4,1.4l11.8,22.2c1,1.8-.3,4-2.4,4l-.1-.1Z"/>
      <path class="st2" d="M262,262.6h-15.9c-1,0-1.9.6-2.4,1.4l-27.2,51.4c-.5.9-1.4,1.4-2.4,1.4h-7.9c-1,0-1.9-.6-2.4-1.4l-27.2-51.4c-.5-.9-1.4-1.4-2.4-1.4h-15.9c-2,0-3.3,2.2-2.4,3.9l34.8,65.8c.5.9,1.4,1.4,2.4,1.4h34c1,0,1.9-.6,2.4-1.4l34.8-65.8c.9-1.8-.4-3.9-2.4-3.9h.1,0Z"/>
      <path class="st2" d="M322.8,264c-.5-.9-1.4-1.4-2.4-1.4h-34.1c-1,0-1.9.6-2.4,1.4l-34.8,65.8c-.9,1.8.4,3.9,2.4,3.9h16c1,0,1.9-.6,2.4-1.4l3.6-6.8c.5-.9,1.4-1.4,2.4-1.4h55c1,0,1.9.6,2.4,1.4l3.6,6.8c.5.9,1.4,1.4,2.4,1.4h16c2,0,3.3-2.2,2.4-3.9l-34.8-65.8h-.1ZM319.1,307.1h-31.4c-2,0-3.3-2.2-2.4-3.9l11.7-22.2c.5-.9,1.4-1.4,2.4-1.4h8c1,0,1.9.5,2.4,1.4l11.8,22.2c1,1.8-.3,4-2.4,4l-.1-.1Z"/>
    </g>
    <g>
      <path class="st2" d="M209.2,356.1c-4.3-3-9.7-5.2-16.3-6.6s-14.5-2.1-23.7-2.1-17.1.7-23.7,2.1c-6.6,1.4-12,3.6-16.3,6.6s-7.4,6.8-9.4,11.4-3,10.1-3,16.5,1,11.9,3,16.5,5.2,8.4,9.4,11.4c4.3,3,9.7,5.2,16.3,6.6s14.5,2.1,23.7,2.1,17.1-.7,23.7-2.1c6.6-1.4,12-3.6,16.3-6.6s7.4-6.8,9.4-11.4,3-10.1,3-16.5-1-11.9-3-16.5-5.2-8.4-9.4-11.4ZM204,394.9c-1.4,3-3.5,5.4-6.4,7.3s-6.7,3.3-11.4,4.1c-4.7.9-10.3,1.3-16.9,1.3s-12.3-.4-16.9-1.3c-4.7-.9-8.4-2.3-11.4-4.1-2.9-1.9-5.1-4.3-6.4-7.3-1.4-3-2.1-6.6-2.1-10.8s.7-7.8,2.1-10.8c1.4-3,3.5-5.4,6.4-7.3s6.7-3.3,11.4-4.1c4.7-.9,10.3-1.3,16.9-1.3s12.3.4,16.9,1.3c4.7.9,8.4,2.3,11.4,4.1,2.9,1.9,5.1,4.3,6.4,7.3,1.4,3,2.1,6.6,2.1,10.8s-.7,7.8-2.1,10.8Z"/>
      <path class="st2" d="M313.3,405.2h-59.1c-1.3,0-2.4-1.1-2.4-2.4v-50.6c0-1.3-1.1-2.4-2.4-2.4h-10.8c-1.3,0-2.4,1.1-2.4,2.4v63.6c0,1.3,1.1,2.4,2.4,2.4h74.7c1.3,0,2.4-1.1,2.4-2.4v-8.2c0-1.3-1.1-2.4-2.4-2.4Z"/>
      <path class="st2" d="M412.4,349.9h-77.9c-1.3,0-2.4,1.1-2.4,2.4v63.6c0,1.3,1.1,2.4,2.4,2.4h10.8c1.3,0,2.4-1.1,2.4-2.4v-20.1c0-1.3,1.1-2.4,2.4-2.4h57.4c1.3,0,2.4-1.1,2.4-2.4v-8.2c0-1.3-1.1-2.4-2.4-2.4h-57.4c-1.3,0-2.4-1.1-2.4-2.4v-12.7c0-1.3,1.1-2.4,2.4-2.4h62.3c1.3,0,2.4-1.1,2.4-2.4v-8.2c0-1.3-1.1-2.4-2.4-2.4h0Z"/>
      <path class="st2" d="M102.8,390.4l-43.8-9.5c-1.5-.3-2.9.8-2.9,2.3v8.1c0,1.1.8,2.1,1.9,2.3l32.3,7v3.1c-2.3.5-4.8.9-7.5,1.3s-5.6.8-8.6,1.1c-3,.3-6,.5-9.1.7s-6.1.2-9,.2c-5.3,0-10.1-.2-14.4-.6-4.3-.4-8-1.4-11.1-3s-5.4-3.9-7.1-6.9c-1.7-3.1-2.5-7.2-2.5-12.5s1-10,2.9-13.1c2-3.1,4.5-5.4,7.8-6.9,3.2-1.5,7-2.4,11.2-2.7,4.3-.3,8.7-.4,13.2-.4,6.7,0,12.7.2,18.1.7,5.3.5,9.9,1,13.8,1.6,3.2.5,6.2,1.1,8.9,1.7,1.5.3,2.9-.8,2.9-2.3v-8.2c0-1.1-.7-2.1-1.8-2.3-2.8-.7-6-1.3-9.6-1.9-3.7-.6-8.2-1.1-13.6-1.6s-11.6-.7-18.7-.7-14.8.5-21.1,1.4c-6.2.9-11.6,2.7-16,5.4-4.4,2.6-7.8,6.3-10.2,11-2.4,4.7-3.6,10.8-3.6,18.4s1.3,14,3.9,18.7c2.6,4.8,6.1,8.4,10.6,11s9.9,4.3,16.1,5.1c6.2.8,12.9,1.3,20.2,1.3s10.3-.3,15.6-.8c5.2-.5,10.1-1.2,14.5-1.9,4.5-.7,8.3-1.5,11.6-2.3,2.1-.5,3.8-.9,5.1-1.3,1-.3,1.7-1.2,1.7-2.3v-18.8c0-1.1-.8-2.1-1.9-2.3l.2-.1h0Z"/>
    </g>
  </g>
  <g>
    <g id="stacked-logo-small">
      <g>
        <g>
          <path class="st2" d="M125.45,275.47c-.43-.81-1.27-1.33-2.19-1.33h-31.45c-.92,0-1.77.51-2.19,1.33l-32.09,60.71c-.88,1.65.32,3.64,2.19,3.64h14.75c.92,0,1.77-.51,2.19-1.33l3.29-6.26c.43-.82,1.27-1.33,2.19-1.33h50.76c.92,0,1.77.51,2.19,1.33l3.3,6.26c.43.81,1.27,1.33,2.19,1.33h14.75c1.87,0,3.07-1.99,2.19-3.64l-32.09-60.71h.02,0ZM122.03,315.24h-29c-1.87,0-3.07-1.99-2.19-3.64l10.8-20.46c.43-.81,1.27-1.33,2.19-1.33h7.33c.92,0,1.76.51,2.19,1.32l10.88,20.46c.88,1.65-.32,3.65-2.19,3.65h0Z"/>
          <path class="st2" d="M241.42,274.15h-14.65c-.92,0-1.76.51-2.19,1.32l-25.06,47.36c-.43.81-1.27,1.32-2.19,1.32h-7.33c-.92,0-1.76-.51-2.19-1.32l-25.06-47.36c-.43-.81-1.27-1.32-2.19-1.32h-14.65c-1.87,0-3.07,1.99-2.19,3.64l32.09,60.71c.43.81,1.27,1.32,2.19,1.32h31.35c.92,0,1.77-.51,2.19-1.33l32.09-60.71c.88-1.65-.32-3.64-2.19-3.64h0Z"/>
          <path class="st2" d="M297.57,275.47c-.43-.81-1.27-1.33-2.19-1.33h-31.45c-.92,0-1.77.51-2.19,1.33l-32.09,60.71c-.88,1.65.32,3.64,2.19,3.64h14.75c.92,0,1.77-.51,2.19-1.33l3.3-6.26c.43-.82,1.27-1.33,2.19-1.33h50.76c.92,0,1.77.51,2.19,1.33l3.3,6.26c.43.81,1.27,1.33,2.19,1.33h14.75c1.87,0,3.07-1.99,2.19-3.64l-32.09-60.71h0ZM294.16,315.24h-29c-1.87,0-3.07-1.99-2.19-3.64l10.8-20.46c.43-.81,1.27-1.33,2.19-1.33h7.33c.92,0,1.76.51,2.19,1.32l10.88,20.46c.88,1.65-.32,3.65-2.19,3.65h0Z"/>
        </g>
        <g>
          <path class="st2" d="M192.8,360.41c-3.93-2.76-8.94-4.79-15.03-6.08-6.1-1.29-13.37-1.93-21.83-1.93s-15.74.64-21.83,1.93c-6.1,1.29-11.11,3.32-15.03,6.08-3.93,2.76-6.83,6.27-8.69,10.53-1.86,4.26-2.79,9.33-2.79,15.22s.93,10.95,2.79,15.22c1.86,4.26,4.75,7.76,8.69,10.49s8.94,4.76,15.03,6.08,13.37,1.98,21.83,1.98,15.74-.66,21.83-1.98,11.11-3.34,15.03-6.08c3.93-2.73,6.83-6.23,8.69-10.49,1.86-4.26,2.79-9.33,2.79-15.22s-.93-10.95-2.79-15.22c-1.86-4.26-4.76-7.77-8.69-10.53ZM187.98,396.15c-1.26,2.76-3.24,5.01-5.94,6.75-2.7,1.74-6.2,3.01-10.49,3.82s-9.5,1.22-15.62,1.22-11.33-.41-15.62-1.22c-4.29-.81-7.78-2.08-10.49-3.82-2.7-1.74-4.68-3.99-5.94-6.75s-1.89-6.09-1.89-9.99.63-7.23,1.89-9.99c1.26-2.76,3.24-5.01,5.94-6.75,2.7-1.74,6.2-3.01,10.49-3.82s9.5-1.22,15.62-1.22,11.33.41,15.62,1.22c4.29.81,7.78,2.09,10.49,3.82,2.7,1.74,4.68,3.99,5.94,6.75s1.89,6.09,1.89,9.99-.63,7.23-1.89,9.99Z"/>
          <path class="st2" d="M288.81,405.7h-54.48c-1.22,0-2.2-.99-2.2-2.2v-46.65c0-1.22-.99-2.2-2.2-2.2h-10c-1.22,0-2.2.99-2.2,2.2v58.63c0,1.22.99,2.2,2.2,2.2h68.89c1.22,0,2.2-.99,2.2-2.2v-7.57c0-1.22-.99-2.2-2.2-2.2h0Z"/>
          <path class="st2" d="M380.16,354.64h-71.85c-1.22,0-2.2.99-2.2,2.2v58.63c0,1.22.99,2.2,2.2,2.2h10c1.22,0,2.2-.99,2.2-2.2v-18.56c0-1.22.99-2.2,2.2-2.2h52.95c1.22,0,2.2-.99,2.2-2.2v-7.57c0-1.22-.99-2.2-2.2-2.2h-52.95c-1.22,0-2.2-.99-2.2-2.2v-11.72c0-1.22.99-2.2,2.2-2.2h57.46c1.22,0,2.2-.99,2.2-2.2v-7.57c0-1.22-.99-2.2-2.2-2.2h0Z"/>
          <path class="st2" d="M94.67,392.04l-40.35-8.73c-1.37-.29-2.66.75-2.66,2.15v7.47c0,1.03.72,1.93,1.73,2.15l29.78,6.45v2.82c-2.1.42-4.41.83-6.94,1.22-2.52.4-5.17.72-7.92.99-2.76.27-5.55.48-8.37.63-2.82.16-5.58.23-8.28.23-4.86,0-9.29-.19-13.28-.58-3.99-.39-7.4-1.31-10.21-2.74-2.83-1.44-5.01-3.57-6.58-6.39-1.57-2.82-2.34-6.66-2.34-11.52,0-5.22.9-9.26,2.7-12.11,1.8-2.85,4.18-4.96,7.16-6.35s6.42-2.2,10.35-2.48c3.93-.27,7.99-.41,12.2-.41,6.18,0,11.73.23,16.65.67,4.92.45,9.16.95,12.69,1.48,2.97.48,5.7,1.01,8.2,1.58,1.39.32,2.7-.71,2.7-2.14v-7.53c0-1.01-.65-1.91-1.64-2.15-2.57-.63-5.51-1.21-8.81-1.75-3.43-.54-7.61-1.03-12.56-1.49-4.96-.45-10.7-.67-17.24-.67-7.2,0-13.69.43-19.44,1.31-5.77.87-10.67,2.51-14.72,4.95-4.05,2.43-7.18,5.81-9.37,10.13s-3.29,9.97-3.29,16.93,1.19,12.9,3.56,17.29c2.37,4.38,5.65,7.76,9.81,10.13,4.17,2.37,9.11,3.95,14.81,4.73,5.7.78,11.91,1.17,18.63,1.17,4.74,0,9.52-.24,14.36-.72,4.84-.48,9.3-1.07,13.41-1.76s7.68-1.39,10.71-2.12c1.97-.47,3.54-.88,4.71-1.22.94-.28,1.55-1.12,1.55-2.11v-17.36c0-1.03-.72-1.93-1.73-2.15h.03,0Z"/>
        </g>
      </g>
      <g id="icon">
        <path class="st1" d="M0,234.7h100.87L234.19,0h-81.5c-12.06,0-23.26,6.85-29.68,18.15L0,234.7Z"/>
        <circle class="st2" cx="109.76" cy="130.51" r="43.76"/>
        <path class="st0" d="M387.23,234.7h-100.87L153.05,0h81.5c12.06,0,23.26,6.85,29.68,18.15l123.01,216.55h0Z"/>
      </g>
    </g>
    <g id="TradeMark">
      <polygon class="st2" points="388.1 404.09 392.63 404.09 392.63 417.69 395.69 417.69 395.69 404.09 400.18 404.09 400.18 401.21 388.1 401.21 388.1 404.09"/>
      <polygon class="st2" points="416.23 401.21 411.33 413.6 411.26 413.6 406.33 401.21 402.44 401.21 402.44 417.69 405.44 417.69 405.44 408.83 405.35 406.04 405.43 406.04 410.08 417.69 412.49 417.69 417.16 406.04 417.23 406.04 417.15 408.83 417.15 417.69 420.14 417.69 420.14 401.21 416.23 401.21"/>
    </g>
  </g>
</svg>