<?xml version="1.0" encoding="UTF-8"?>
<svg id="AVA_Golf_Logo" xmlns="http://www.w3.org/2000/svg" xmlns:xlink="http://www.w3.org/1999/xlink" version="1.1" viewBox="0 0 420 455.3">
  <!-- Generator: Adobe Illustrator 30.2.1, SVG Export Plug-In . SVG Version: 2.1.1 Build 1)  -->
  <defs>
    <style>
      .st0 {
        fill: url(#linear-gradient);
      }

      .st1 {
        fill: #fff;
      }
    </style>
    <linearGradient id="linear-gradient" x1="127" y1="254.6" x2="127" y2="0" gradientUnits="userSpaceOnUse">
      <stop offset="0" stop-color="#fff"/>
      <stop offset="1" stop-color="#fff" stop-opacity="0"/>
    </linearGradient>
  </defs>
  <g id="stacked-logo-small">
    <g>
      <g>
        <path class="st1" d="M136.2,298.7c-.5-.9-1.4-1.4-2.4-1.4h-34.1c-1,0-1.9.6-2.4,1.4l-34.8,65.8c-.9,1.8.4,3.9,2.4,3.9h16c1,0,1.9-.6,2.4-1.4l3.6-6.8c.5-.9,1.4-1.4,2.4-1.4h55c1,0,1.9.6,2.4,1.4l3.6,6.8c.5.9,1.4,1.4,2.4,1.4h16c2,0,3.3-2.2,2.4-3.9l-34.8-65.8ZM132.5,341.8h-31.4c-2,0-3.3-2.2-2.4-3.9l11.7-22.2c.5-.9,1.4-1.4,2.4-1.4h8c1,0,1.9.5,2.4,1.4l11.8,22.2c1,1.8-.3,4-2.4,4Z"/>
        <path class="st1" d="M262,297.3h-15.9c-1,0-1.9.6-2.4,1.4l-27.2,51.4c-.5.9-1.4,1.4-2.4,1.4h-7.9c-1,0-1.9-.6-2.4-1.4l-27.2-51.4c-.5-.9-1.4-1.4-2.4-1.4h-15.9c-2,0-3.3,2.2-2.4,3.9l34.8,65.8c.5.9,1.4,1.4,2.4,1.4h34c1,0,1.9-.6,2.4-1.4l34.8-65.8c.9-1.8-.4-3.9-2.4-3.9Z"/>
        <path class="st1" d="M322.8,298.7c-.5-.9-1.4-1.4-2.4-1.4h-34.1c-1,0-1.9.6-2.4,1.4l-34.8,65.8c-.9,1.8.4,3.9,2.4,3.9h16c1,0,1.9-.6,2.4-1.4l3.6-6.8c.5-.9,1.4-1.4,2.4-1.4h55c1,0,1.9.6,2.4,1.4l3.6,6.8c.5.9,1.4,1.4,2.4,1.4h16c2,0,3.3-2.2,2.4-3.9l-34.8-65.8ZM319.1,341.8h-31.4c-2,0-3.3-2.2-2.4-3.9l11.7-22.2c.5-.9,1.4-1.4,2.4-1.4h8c1,0,1.9.5,2.4,1.4l11.8,22.2c1,1.8-.3,4-2.4,4Z"/>
      </g>
      <g>
        <path class="st1" d="M209.2,390.8c-4.3-3-9.7-5.2-16.3-6.6-6.6-1.4-14.5-2.1-23.7-2.1s-17.1.7-23.7,2.1c-6.6,1.4-12,3.6-16.3,6.6-4.3,3-7.4,6.8-9.4,11.4-2,4.6-3,10.1-3,16.5s1,11.9,3,16.5c2,4.6,5.2,8.4,9.4,11.4,4.3,3,9.7,5.2,16.3,6.6,6.6,1.4,14.5,2.1,23.7,2.1s17.1-.7,23.7-2.1c6.6-1.4,12-3.6,16.3-6.6,4.3-3,7.4-6.8,9.4-11.4,2-4.6,3-10.1,3-16.5s-1-11.9-3-16.5c-2-4.6-5.2-8.4-9.4-11.4ZM204,429.6c-1.4,3-3.5,5.4-6.4,7.3-2.9,1.9-6.7,3.3-11.4,4.1-4.7.9-10.3,1.3-16.9,1.3s-12.3-.4-16.9-1.3c-4.7-.9-8.4-2.3-11.4-4.1-2.9-1.9-5.1-4.3-6.4-7.3-1.4-3-2.1-6.6-2.1-10.8s.7-7.8,2.1-10.8c1.4-3,3.5-5.4,6.4-7.3,2.9-1.9,6.7-3.3,11.4-4.1,4.7-.9,10.3-1.3,16.9-1.3s12.3.4,16.9,1.3c4.7.9,8.4,2.3,11.4,4.1,2.9,1.9,5.1,4.3,6.4,7.3,1.4,3,2.1,6.6,2.1,10.8s-.7,7.8-2.1,10.8Z"/>
        <path class="st1" d="M313.3,439.9h-59.1c-1.3,0-2.4-1.1-2.4-2.4v-50.6c0-1.3-1.1-2.4-2.4-2.4h-10.8c-1.3,0-2.4,1.1-2.4,2.4v63.6c0,1.3,1.1,2.4,2.4,2.4h74.7c1.3,0,2.4-1.1,2.4-2.4v-8.2c0-1.3-1.1-2.4-2.4-2.4Z"/>
        <path class="st1" d="M412.4,384.6h-77.9c-1.3,0-2.4,1.1-2.4,2.4v63.6c0,1.3,1.1,2.4,2.4,2.4h10.8c1.3,0,2.4-1.1,2.4-2.4v-20.1c0-1.3,1.1-2.4,2.4-2.4h57.4c1.3,0,2.4-1.1,2.4-2.4v-8.2c0-1.3-1.1-2.4-2.4-2.4h-57.4c-1.3,0-2.4-1.1-2.4-2.4v-12.7c0-1.3,1.1-2.4,2.4-2.4h62.3c1.3,0,2.4-1.1,2.4-2.4v-8.2c0-1.3-1.1-2.4-2.4-2.4Z"/>
        <path class="st1" d="M102.8,425.1l-43.8-9.5c-1.5-.3-2.9.8-2.9,2.3v8.1c0,1.1.8,2.1,1.9,2.3l32.3,7v3.1c-2.3.5-4.8.9-7.5,1.3-2.7.4-5.6.8-8.6,1.1-3,.3-6,.5-9.1.7-3.1.2-6.1.2-9,.2-5.3,0-10.1-.2-14.4-.6-4.3-.4-8-1.4-11.1-3-3.1-1.6-5.4-3.9-7.1-6.9-1.7-3.1-2.5-7.2-2.5-12.5s1-10,2.9-13.1c2-3.1,4.5-5.4,7.8-6.9,3.2-1.5,7-2.4,11.2-2.7,4.3-.3,8.7-.4,13.2-.4,6.7,0,12.7.2,18.1.7,5.3.5,9.9,1,13.8,1.6,3.2.5,6.2,1.1,8.9,1.7,1.5.3,2.9-.8,2.9-2.3v-8.2c0-1.1-.7-2.1-1.8-2.3-2.8-.7-6-1.3-9.6-1.9-3.7-.6-8.2-1.1-13.6-1.6-5.4-.5-11.6-.7-18.7-.7s-14.8.5-21.1,1.4c-6.2.9-11.6,2.7-16,5.4-4.4,2.6-7.8,6.3-10.2,11-2.4,4.7-3.6,10.8-3.6,18.4s1.3,14,3.9,18.7c2.6,4.8,6.1,8.4,10.6,11,4.5,2.6,9.9,4.3,16.1,5.1,6.2.8,12.9,1.3,20.2,1.3s10.3-.3,15.6-.8c5.2-.5,10.1-1.2,14.5-1.9,4.5-.7,8.3-1.5,11.6-2.3,2.1-.5,3.8-.9,5.1-1.3,1-.3,1.7-1.2,1.7-2.3v-18.8c0-1.1-.8-2.1-1.9-2.3Z"/>
      </g>
    </g>
    <g>
      <path class="st1" d="M420,254.6h-109.4L166,0h88.4c13.1,0,25.2,7.4,32.2,19.7l133.4,234.9Z"/>
      <path class="st0" d="M0,254.6h109.4S254,0,254,0h-88.4c-13.1,0-25.2,7.4-32.2,19.7L0,254.6Z"/>
      <circle class="st1" cx="119.1" cy="141.5" r="47.5"/>
    </g>
  </g>
</svg>