<?xml version="1.0" encoding="UTF-8"?>
<svg id="AVA_Golf_Logo" xmlns="http://www.w3.org/2000/svg" xmlns:xlink="http://www.w3.org/1999/xlink" version="1.1" viewBox="0 0 720 160.99">
  <!-- Generator: Adobe Illustrator 30.4.0, SVG Export Plug-In . SVG Version: 2.1.4 Build 226)  -->
  <defs>
    <style>
      .st0 {
        fill: url(#linear-gradient1);
      }

      .st1 {
        fill: url(#linear-gradient);
      }

      .st2 {
        fill: #fff;
      }
    </style>
    <linearGradient id="linear-gradient" x1="78.31" y1="11.47" x2="78.31" y2="168.59" gradientTransform="translate(0 168) scale(1 -1)" gradientUnits="userSpaceOnUse">
      <stop offset="0" stop-color="#359683"/>
      <stop offset="1" stop-color="#359683" stop-opacity="0"/>
    </linearGradient>
    <linearGradient id="linear-gradient1" x1="102.37" y1="90.02" x2="259.16" y2="90.02" gradientTransform="translate(0 168) scale(1 -1)" gradientUnits="userSpaceOnUse">
      <stop offset="0" stop-color="#ffff4a"/>
      <stop offset="1" stop-color="#ffe708"/>
    </linearGradient>
  </defs>
  <g id="side-by-side">
    <g>
      <g>
        <path class="st2" d="M352.29.85c-.47-.89-1.4-1.44-2.4-1.44h-34.42c-1,0-1.93.55-2.4,1.44l-35.13,66.46c-.96,1.81.35,3.98,2.4,3.98h16.14c1,0,1.93-.56,2.41-1.45l3.6-6.85c.47-.89,1.4-1.45,2.41-1.45h55.58c1.01,0,1.93.55,2.41,1.45l3.61,6.85c.47.89,1.4,1.45,2.4,1.45h16.14c2.05,0,3.35-2.18,2.4-3.98L352.29.85ZM348.55,44.4h-31.75c-2.05,0-3.35-2.18-2.4-3.98l11.82-22.4c.47-.89,1.4-1.45,2.4-1.45h8.03c1,0,1.93.55,2.4,1.44l11.91,22.4c.97,1.81-.35,3.99-2.4,3.99h0Z"/>
        <path class="st2" d="M479.26-.59h-16.04c-1,0-1.93.55-2.4,1.44l-27.44,51.85c-.47.89-1.4,1.44-2.4,1.44h-8.03c-1,0-1.93-.55-2.4-1.44L393.13.85c-.47-.89-1.4-1.44-2.4-1.44h-16.05c-2.05,0-3.35,2.18-2.4,3.98l35.13,66.46c.47.89,1.4,1.44,2.4,1.44h34.33c1,0,1.93-.55,2.4-1.44L481.66,3.39c.96-1.81-.35-3.98-2.4-3.98Z"/>
        <path class="st2" d="M540.74.85c-.47-.89-1.4-1.44-2.4-1.44h-34.42c-1,0-1.93.55-2.4,1.44l-35.13,66.46c-.96,1.81.35,3.98,2.4,3.98h16.14c1.01,0,1.93-.55,2.41-1.45l3.6-6.85c.47-.89,1.4-1.45,2.41-1.45h55.58c1,0,1.93.55,2.4,1.45l3.61,6.85c.47.89,1.4,1.45,2.41,1.45h16.14c2.05,0,3.35-2.18,2.4-3.98L540.74.85ZM536.99,44.4h-31.76c-2.05,0-3.35-2.18-2.4-3.98l11.82-22.4c.47-.89,1.4-1.45,2.4-1.45h8.03c1,0,1.93.55,2.4,1.44l11.91,22.4c.97,1.81-.35,3.99-2.4,3.99h0Z"/>
      </g>
      <g>
        <path class="st2" d="M483.4,93.85c-4.3-3.02-9.8-5.24-16.47-6.65-6.67-1.41-14.64-2.12-23.9-2.12s-17.23.71-23.9,2.12-12.16,3.63-16.47,6.65c-4.31,3.02-7.47,6.86-9.51,11.53-2.04,4.66-3.06,10.22-3.06,16.66s1.02,11.99,3.06,16.66c2.04,4.66,5.21,8.5,9.51,11.48,4.3,2.99,9.79,5.21,16.47,6.65,6.67,1.44,14.64,2.17,23.9,2.17s17.23-.73,23.9-2.17c6.67-1.44,12.16-3.66,16.47-6.65,4.3-2.99,7.47-6.81,9.51-11.48,2.04-4.66,3.06-10.22,3.06-16.66s-1.02-11.99-3.06-16.66-5.21-8.51-9.51-11.53ZM478.13,132.98c-1.38,3.02-3.55,5.49-6.51,7.4s-6.78,3.3-11.49,4.19c-4.7.89-10.4,1.33-17.11,1.33s-12.4-.44-17.11-1.33c-4.7-.89-8.52-2.28-11.49-4.19-2.95-1.91-5.12-4.37-6.51-7.4-1.39-3.02-2.07-6.67-2.07-10.94s.69-7.91,2.07-10.94c1.38-3.02,3.55-5.49,6.51-7.4,2.96-1.9,6.78-3.3,11.49-4.19,4.69-.89,10.4-1.33,17.11-1.33s12.4.44,17.11,1.33c4.7.89,8.52,2.28,11.49,4.19,2.95,1.91,5.12,4.37,6.51,7.4,1.39,3.02,2.07,6.67,2.07,10.94s-.69,7.92-2.07,10.94Z"/>
        <path class="st2" d="M588.51,143.42h-59.65c-1.33,0-2.41-1.08-2.41-2.41v-51.07c0-1.33-1.08-2.41-2.41-2.41h-10.95c-1.33,0-2.41,1.08-2.41,2.41v64.18c0,1.33,1.08,2.41,2.41,2.41h75.42c1.33,0,2.41-1.08,2.41-2.41v-8.29c0-1.33-1.08-2.41-2.41-2.41h0Z"/>
        <path class="st2" d="M688.52,87.54h-78.67c-1.33,0-2.41,1.08-2.41,2.41v64.18c0,1.33,1.08,2.41,2.41,2.41h10.95c1.33,0,2.41-1.08,2.41-2.41v-20.32c0-1.33,1.08-2.41,2.41-2.41h57.97c1.33,0,2.41-1.08,2.41-2.41v-8.29c0-1.33-1.08-2.41-2.41-2.41h-57.97c-1.33,0-2.41-1.08-2.41-2.41v-12.82c0-1.33,1.08-2.41,2.41-2.41h62.9c1.33,0,2.41-1.08,2.41-2.41v-8.29c0-1.33-1.08-2.41-2.41-2.41h0Z"/>
        <path class="st2" d="M375.96,128.48l-44.17-9.56c-1.5-.32-2.91.82-2.91,2.35v8.18c0,1.14.79,2.11,1.9,2.35l32.61,7.05v3.09c-2.3.46-4.83.9-7.59,1.33s-5.66.78-8.68,1.09c-3.02.3-6.08.53-9.16.69s-6.11.25-9.07.25c-5.32,0-10.17-.21-14.54-.64-4.37-.43-8.1-1.43-11.19-3.01-3.09-1.58-5.49-3.91-7.2-7-1.71-3.09-2.56-7.29-2.56-12.61,0-5.71.98-10.14,2.96-13.25,1.97-3.12,4.58-5.44,7.84-6.95,3.25-1.51,7.03-2.42,11.33-2.7,4.3-.3,8.75-.45,13.36-.45,6.77,0,12.84.25,18.23.74,5.39.5,10.02,1.03,13.89,1.62,3.25.53,6.24,1.11,8.97,1.74,1.52.35,2.95-.77,2.95-2.33v-8.25c0-1.11-.71-2.08-1.79-2.34-2.82-.68-6.03-1.32-9.64-1.91-3.75-.59-8.32-1.14-13.75-1.62-5.42-.49-11.72-.74-18.87-.74-7.88,0-14.98.48-21.29,1.43-6.31.96-11.68,2.76-16.12,5.42-4.43,2.67-7.86,6.35-10.25,11.09s-3.6,10.91-3.6,18.53,1.3,14.13,3.9,18.92c2.59,4.8,6.17,8.5,10.74,11.09,4.57,2.6,9.98,4.32,16.22,5.18,6.24.85,13.04,1.28,20.4,1.28,5.19,0,10.43-.27,15.72-.78,5.28-.53,10.19-1.17,14.69-1.92s8.41-1.53,11.73-2.31c2.15-.52,3.87-.96,5.15-1.33,1.03-.3,1.7-1.23,1.7-2.3v-19.01c0-1.14-.79-2.11-1.9-2.35v-.04Z"/>
      </g>
    </g>
    <g id="icon">
      <path class="st1" d="M-.09,156.53h67.52L156.7-.59h-54.57c-8.07,0-15.58,4.59-19.87,12.16L-.09,156.53Z"/>
      <circle class="st2" cx="73.4" cy="86.78" r="29.3"/>
      <path class="st0" d="M259.15,156.53h-67.52L102.37-.59h54.57c8.07,0,15.58,4.59,19.87,12.16l82.36,144.98h0Z"/>
    </g>
    <g id="TradeMark">
      <polygon class="st2" points="694.38 145.71 697.98 145.71 697.98 156.53 700.42 156.53 700.42 145.71 704.01 145.71 704.01 143.41 694.38 143.41 694.38 145.71"/>
      <polygon class="st2" points="716.78 143.41 712.9 153.29 712.83 153.29 708.9 143.41 705.79 143.41 705.79 156.53 708.19 156.53 708.19 149.48 708.12 147.26 708.18 147.26 711.89 156.53 713.81 156.53 717.53 147.26 717.59 147.26 717.52 149.48 717.52 156.53 719.9 156.53 719.9 143.41 716.78 143.41"/>
    </g>
  </g>
</svg>