<?xml version="1.0" encoding="UTF-8"?>
<svg id="Logo" xmlns="http://www.w3.org/2000/svg" version="1.1" viewBox="0 0 759.2 76.7">
  <!-- Generator: Adobe Illustrator 30.2.1, SVG Export Plug-In . SVG Version: 2.1.1 Build 1)  -->
  <defs>
    <style>
      .st0 {
        fill: #fff;
      }
    </style>
  </defs>
  <g id="AG-wordmrk">
    <path class="st0" d="M77.4,2.6c-.5-.9-1.4-1.5-2.5-1.5h-35.7c-1,0-2,.6-2.5,1.5L.3,71.5c-1,1.9.4,4.1,2.5,4.1h16.7c1,0,2-.6,2.5-1.5l3.7-7.1c.5-.9,1.4-1.5,2.5-1.5h57.6c1,0,2,.6,2.5,1.5l3.7,7.1c.5.9,1.4,1.5,2.5,1.5h16.7c2.1,0,3.5-2.3,2.5-4.1L77.4,2.6ZM73.6,47.7h-32.9c-2.1,0-3.5-2.3-2.5-4.1l12.3-23.2c.5-.9,1.4-1.5,2.5-1.5h8.3c1,0,2,.6,2.5,1.5l12.3,23.2c1,1.9-.4,4.1-2.5,4.1Z"/>
    <path class="st0" d="M209.1,1.1h-16.6c-1,0-2,.6-2.5,1.5l-28.5,53.8c-.5.9-1.4,1.5-2.5,1.5h-8.3c-1,0-2-.6-2.5-1.5L119.8,2.5c-.5-.9-1.4-1.5-2.5-1.5h-16.6c-2.1,0-3.5,2.3-2.5,4.1l36.4,68.9c.5.9,1.4,1.5,2.5,1.5h35.6c1,0,2-.6,2.5-1.5L211.6,5.2c1-1.9-.4-4.1-2.5-4.1Z"/>
    <path class="st0" d="M272.8,2.6c-.5-.9-1.4-1.5-2.5-1.5h-35.7c-1,0-2,.6-2.5,1.5l-36.4,68.9c-1,1.9.4,4.1,2.5,4.1h16.7c1,0,2-.6,2.5-1.5l3.7-7.1c.5-.9,1.4-1.5,2.5-1.5h57.6c1,0,2,.6,2.5,1.5l3.7,7.1c.5.9,1.4,1.5,2.5,1.5h16.7c2.1,0,3.5-2.3,2.5-4.1L272.8,2.6ZM269,47.7h-32.9c-2.1,0-3.5-2.3-2.5-4.1l12.3-23.2c.5-.9,1.4-1.5,2.5-1.5h8.3c1,0,2,.6,2.5,1.5l12.3,23.2c1,1.9-.4,4.1-2.5,4.1Z"/>
    <path class="st0" d="M544,9.1c-4.5-3.1-10.2-5.4-17.1-6.9-6.9-1.5-15.2-2.2-24.8-2.2s-17.9.7-24.8,2.2c-6.9,1.5-12.6,3.8-17.1,6.9-4.5,3.1-7.8,7.1-9.9,12-2.1,4.8-3.2,10.6-3.2,17.3s1.1,12.4,3.2,17.3c2.1,4.8,5.4,8.8,9.9,11.9,4.5,3.1,10.2,5.4,17.1,6.9,6.9,1.5,15.2,2.2,24.8,2.2s17.9-.8,24.8-2.2c6.9-1.5,12.6-3.8,17.1-6.9,4.5-3.1,7.8-7.1,9.9-11.9s3.2-10.6,3.2-17.3-1.1-12.4-3.2-17.3c-2.1-4.8-5.4-8.8-9.9-12ZM538.6,49.7c-1.4,3.1-3.7,5.7-6.7,7.7-3.1,2-7,3.4-11.9,4.3-4.9.9-10.8,1.4-17.7,1.4s-12.9-.5-17.7-1.4c-4.9-.9-8.8-2.4-11.9-4.3-3.1-2-5.3-4.5-6.7-7.7-1.4-3.1-2.1-6.9-2.1-11.3s.7-8.2,2.1-11.3c1.4-3.1,3.7-5.7,6.7-7.7,3.1-2,7-3.4,11.9-4.3,4.9-.9,10.8-1.4,17.7-1.4s12.9.5,17.7,1.4c4.9.9,8.8,2.4,11.9,4.3,3.1,2,5.3,4.5,6.7,7.7,1.4,3.1,2.1,6.9,2.1,11.3s-.7,8.2-2.1,11.3Z"/>
    <path class="st0" d="M653,60.5h-61.8c-1.4,0-2.5-1.1-2.5-2.5V5.1c0-1.4-1.1-2.5-2.5-2.5h-11.4c-1.4,0-2.5,1.1-2.5,2.5v66.6c0,1.4,1.1,2.5,2.5,2.5h78.2c1.4,0,2.5-1.1,2.5-2.5v-8.6c0-1.4-1.1-2.5-2.5-2.5Z"/>
    <path class="st0" d="M756.7,2.6h-81.6c-1.4,0-2.5,1.1-2.5,2.5v66.6c0,1.4,1.1,2.5,2.5,2.5h11.4c1.4,0,2.5-1.1,2.5-2.5v-21.1c0-1.4,1.1-2.5,2.5-2.5h60.1c1.4,0,2.5-1.1,2.5-2.5v-8.6c0-1.4-1.1-2.5-2.5-2.5h-60.1c-1.4,0-2.5-1.1-2.5-2.5v-13.3c0-1.4,1.1-2.5,2.5-2.5h65.2c1.4,0,2.5-1.1,2.5-2.5V5.1c0-1.4-1.1-2.5-2.5-2.5Z"/>
    <path class="st0" d="M432.6,45l-45.8-9.9c-1.6-.3-3,.8-3,2.4v8.5c0,1.2.8,2.2,2,2.4l33.8,7.3v3.2c-2.4.5-5,.9-7.9,1.4-2.9.4-5.9.8-9,1.1-3.1.3-6.3.5-9.5.7-3.2.2-6.3.3-9.4.3-5.5,0-10.5-.2-15.1-.7-4.5-.4-8.4-1.5-11.6-3.1-3.2-1.6-5.7-4.1-7.5-7.3-1.8-3.2-2.7-7.6-2.7-13.1s1-10.5,3.1-13.7c2-3.2,4.8-5.6,8.1-7.2,3.4-1.6,7.3-2.5,11.8-2.8,4.5-.3,9.1-.5,13.9-.5,7,0,13.3.3,18.9.8,5.6.5,10.4,1.1,14.4,1.7,3.4.5,6.5,1.1,9.3,1.8,1.6.4,3.1-.8,3.1-2.4V7.4c0-1.2-.7-2.2-1.9-2.4-2.9-.7-6.3-1.4-10-2-3.9-.6-8.6-1.2-14.3-1.7-5.6-.5-12.1-.8-19.6-.8s-15.5.5-22.1,1.5c-6.5,1-12.1,2.9-16.7,5.6-4.6,2.8-8.1,6.6-10.6,11.5-2.5,4.9-3.7,11.3-3.7,19.2s1.3,14.7,4,19.6c2.7,5,6.4,8.8,11.1,11.5,4.7,2.7,10.3,4.5,16.8,5.4,6.5.9,13.5,1.3,21.2,1.3s10.8-.3,16.3-.8c5.5-.5,10.6-1.2,15.2-2,4.7-.8,8.7-1.6,12.2-2.4,2.2-.5,4-1,5.3-1.4,1.1-.3,1.8-1.3,1.8-2.4v-19.7c0-1.2-.8-2.2-2-2.4Z"/>
  </g>
</svg>