<?xml version="1.0" encoding="UTF-8"?>
<svg id="Logo" xmlns="http://www.w3.org/2000/svg" version="1.1" viewBox="0 0 759.2 76.7">
  <!-- Generator: Adobe Illustrator 30.4.0, SVG Export Plug-In . SVG Version: 2.1.4 Build 226)  -->
  <defs>
    <style>
      .st0 {
        fill: #fff;
      }
    </style>
  </defs>
  <g id="wordmark">
    <path class="st0" d="M74.01,4.66c-.47-.88-1.39-1.44-2.39-1.44h-34.13c-1,0-1.91.55-2.38,1.44L.29,70.56c-.95,1.8.35,3.95,2.39,3.95h16.01c1,0,1.92-.55,2.39-1.44l3.57-6.8c.47-.88,1.39-1.44,2.39-1.44h55.1c1,0,1.92.55,2.39,1.44l3.57,6.8c.47.88,1.39,1.44,2.39,1.44h16c2.02,0,3.33-2.16,2.38-3.95L74.01,4.66ZM70.3,47.83h-31.48c-2.02,0-3.33-2.16-2.39-3.95l11.72-22.21c.47-.88,1.39-1.44,2.39-1.44h7.96c1,0,1.91.55,2.38,1.43l11.81,22.21c.95,1.8-.34,3.95-2.38,3.95h0Z"/>
    <path class="st0" d="M199.91,3.22h-15.9c-1,0-1.91.55-2.38,1.44l-27.21,51.41c-.47.88-1.38,1.44-2.38,1.44h-7.96c-1,0-1.91-.55-2.38-1.44L114.5,4.65c-.47-.88-1.38-1.44-2.38-1.44h-15.9c-2.02,0-3.33,2.16-2.39,3.95l34.83,65.9c.47.88,1.38,1.44,2.38,1.44h34.03c1,0,1.91-.55,2.39-1.44L202.28,7.17c.95-1.8-.35-3.95-2.39-3.95h0Z"/>
    <path class="st0" d="M260.85,4.66c-.47-.88-1.39-1.44-2.39-1.44h-34.13c-1,0-1.91.55-2.38,1.44l-34.83,65.9c-.95,1.8.35,3.95,2.38,3.95h16.01c1,0,1.92-.55,2.39-1.44l3.57-6.8c.47-.88,1.39-1.44,2.39-1.44h55.1c1,0,1.92.55,2.39,1.44l3.57,6.8c.47.88,1.39,1.44,2.39,1.44h16c2.02,0,3.33-2.16,2.38-3.95L260.85,4.66ZM257.14,47.83h-31.48c-2.02,0-3.33-2.16-2.39-3.95l11.71-22.21c.47-.88,1.39-1.44,2.39-1.44h7.96c1,0,1.91.55,2.38,1.43l11.81,22.21c.95,1.8-.34,3.95-2.38,3.95h0Z"/>
    <path class="st0" d="M520.16,10.91c-4.27-2.99-9.71-5.19-16.32-6.6-6.62-1.4-14.52-2.1-23.7-2.1s-17.08.7-23.7,2.1c-6.62,1.41-12.05,3.6-16.32,6.6-4.27,2.99-7.42,6.81-9.43,11.44-2.02,4.63-3.03,10.13-3.03,16.51s1.01,11.89,3.03,16.51c2.02,4.63,5.16,8.42,9.43,11.38,4.27,2.97,9.71,5.16,16.32,6.6,6.61,1.44,14.52,2.15,23.7,2.15s17.08-.71,23.7-2.15c6.61-1.44,12.05-3.63,16.32-6.6s7.42-6.76,9.43-11.38c2.02-4.63,3.03-10.13,3.03-16.51s-1.01-11.89-3.03-16.51c-2.02-4.63-5.16-8.43-9.43-11.44ZM514.93,49.71c-1.37,2.99-3.52,5.44-6.45,7.33-2.94,1.89-6.73,3.27-11.39,4.15-4.66.88-10.31,1.32-16.96,1.32s-12.3-.44-16.96-1.32-8.45-2.26-11.39-4.15c-2.93-1.89-5.09-4.34-6.45-7.33-1.37-2.99-2.05-6.61-2.05-10.85s.68-7.85,2.05-10.85c1.37-2.99,3.52-5.44,6.45-7.33,2.94-1.89,6.73-3.27,11.39-4.15,4.66-.88,10.31-1.32,16.96-1.32s12.3.44,16.96,1.32,8.45,2.26,11.39,4.15c2.93,1.89,5.09,4.34,6.45,7.33,1.37,2.99,2.05,6.61,2.05,10.85s-.68,7.85-2.05,10.85Z"/>
    <path class="st0" d="M624.38,60.07h-59.14c-1.32,0-2.39-1.06-2.39-2.39V7.04c0-1.32-1.06-2.39-2.39-2.39h-10.86c-1.32,0-2.39,1.06-2.39,2.39v63.64c0,1.32,1.06,2.39,2.39,2.39h74.77c1.32,0,2.39-1.06,2.39-2.39v-8.22c0-1.32-1.06-2.39-2.39-2.39Z"/>
    <path class="st0" d="M723.53,4.66h-78c-1.32,0-2.39,1.06-2.39,2.39v63.64c0,1.32,1.06,2.39,2.39,2.39h10.86c1.32,0,2.39-1.06,2.39-2.39v-20.14c0-1.32,1.06-2.39,2.39-2.39h57.48c1.32,0,2.39-1.06,2.39-2.39v-8.22c0-1.32-1.06-2.39-2.39-2.39h-57.48c-1.32,0-2.39-1.06-2.39-2.39v-12.72c0-1.32,1.06-2.39,2.39-2.39h62.36c1.32,0,2.39-1.06,2.39-2.39V7.04c0-1.32-1.06-2.39-2.39-2.39h0Z"/>
    <path class="st0" d="M413.64,45.25l-43.8-9.48c-1.49-.32-2.89.81-2.89,2.34v8.11c0,1.12.78,2.1,1.88,2.34l32.32,7v3.05c-2.28.46-4.79.89-7.53,1.32-2.74.43-5.61.78-8.6,1.07s-6.03.52-9.09.68c-3.06.16-6.06.25-8.99.25-5.28,0-10.09-.21-14.41-.64-4.34-.43-8.03-1.42-11.09-2.99-3.06-1.56-5.44-3.88-7.14-6.94-1.69-3.06-2.54-7.23-2.54-12.51,0-5.67.98-10.05,2.94-13.15,1.95-3.09,4.54-5.39,7.77-6.89,3.22-1.49,6.97-2.4,11.24-2.68,4.27-.29,8.68-.44,13.24-.44,6.71,0,12.74.25,18.08.73,5.34.49,9.93,1.03,13.78,1.62,3.22.52,6.19,1.09,8.9,1.72,1.51.35,2.93-.77,2.93-2.32v-8.19c0-1.1-.7-2.06-1.78-2.33-2.79-.67-5.98-1.31-9.56-1.89-3.72-.59-8.26-1.12-13.63-1.62-5.37-.48-11.62-.73-18.72-.73-7.81,0-14.86.48-21.1,1.42-6.26.94-11.58,2.74-15.98,5.37-4.4,2.64-7.79,6.3-10.16,10.99-2.38,4.7-3.56,10.82-3.56,18.38s1.28,14.01,3.86,18.77,6.12,8.42,10.65,10.99c4.53,2.58,9.89,4.29,16.08,5.13s12.93,1.27,20.23,1.27c5.14,0,10.34-.27,15.59-.78,5.25-.52,10.1-1.16,14.56-1.91,4.46-.75,8.34-1.51,11.63-2.29,2.14-.51,3.84-.95,5.11-1.32,1.03-.29,1.68-1.23,1.68-2.29v-18.85c0-1.12-.79-2.1-1.88-2.34v.02h0Z"/>
    <g id="TradeMark">
      <polygon class="st0" points="729.39 62.23 732.99 62.23 732.99 73.07 735.43 73.07 735.43 62.23 739.02 62.23 739.02 59.94 729.39 59.94 729.39 62.23"/>
      <polygon class="st0" points="751.81 59.94 747.91 69.82 747.84 69.82 743.93 59.94 740.82 59.94 740.82 73.07 743.2 73.07 743.2 66 743.14 63.78 743.19 63.78 746.91 73.07 748.83 73.07 752.55 63.78 752.61 63.78 752.54 66 752.54 73.07 754.93 73.07 754.93 59.94 751.81 59.94"/>
    </g>
  </g>
</svg>