<?xml version="1.0" encoding="UTF-8"?>
<svg id="AVA_Golf_Logo" xmlns="http://www.w3.org/2000/svg" xmlns:xlink="http://www.w3.org/1999/xlink" version="1.1" viewBox="0 0 720 163.99">
  <!-- Generator: Adobe Illustrator 30.4.0, SVG Export Plug-In . SVG Version: 2.1.4 Build 226)  -->
  <defs>
    <style>
      .st0 {
        fill: url(#linear-gradient);
      }

      .st1 {
        fill: #fff;
      }
    </style>
    <linearGradient id="linear-gradient" x1="114.08" y1="380.35" x2="114.08" y2="223.17" gradientTransform="translate(-36 -221.15)" gradientUnits="userSpaceOnUse">
      <stop offset="0" stop-color="#fff"/>
      <stop offset="1" stop-color="#fff" stop-opacity="0"/>
    </linearGradient>
  </defs>
  <g id="side-by-side">
    <g>
      <g>
        <path class="st1" d="M352.16,3.46c-.47-.89-1.4-1.44-2.4-1.44h-34.43c-1,0-1.93.55-2.4,1.44l-35.14,66.49c-.96,1.81.35,3.99,2.4,3.99h16.15c1,0,1.93-.56,2.41-1.45l3.6-6.85c.47-.89,1.4-1.45,2.41-1.45h55.6c1.01,0,1.93.55,2.41,1.45l3.61,6.85c.47.89,1.4,1.45,2.4,1.45h16.15c2.05,0,3.36-2.18,2.4-3.99L352.16,3.46ZM348.42,47.03h-31.76c-2.05,0-3.36-2.18-2.4-3.99l11.83-22.41c.47-.89,1.4-1.45,2.4-1.45h8.03c1,0,1.93.55,2.4,1.44l11.91,22.41c.97,1.81-.35,4-2.4,4h0Z"/>
        <path class="st1" d="M479.18,2.02h-16.04c-1,0-1.93.55-2.4,1.44l-27.45,51.87c-.47.89-1.4,1.44-2.4,1.44h-8.03c-1,0-1.93-.55-2.4-1.44l-27.45-51.87c-.47-.89-1.4-1.44-2.4-1.44h-16.05c-2.05,0-3.36,2.18-2.4,3.99l35.14,66.49c.47.89,1.4,1.44,2.4,1.44h34.34c1,0,1.93-.55,2.4-1.44L481.58,6.01c.96-1.81-.35-3.99-2.4-3.99Z"/>
        <path class="st1" d="M540.68,3.46c-.47-.89-1.4-1.44-2.4-1.44h-34.43c-1,0-1.93.55-2.4,1.44l-35.14,66.49c-.96,1.81.35,3.99,2.4,3.99h16.15c1.01,0,1.93-.55,2.41-1.45l3.6-6.85c.47-.89,1.4-1.45,2.41-1.45h55.6c1,0,1.93.55,2.4,1.45l3.61,6.85c.47.89,1.4,1.45,2.41,1.45h16.15c2.05,0,3.36-2.18,2.4-3.99L540.68,3.46ZM536.93,47.03h-31.77c-2.05,0-3.36-2.18-2.4-3.99l11.83-22.41c.47-.89,1.4-1.45,2.4-1.45h8.03c1,0,1.93.55,2.4,1.44l11.91,22.41c.97,1.81-.35,4-2.4,4h0Z"/>
      </g>
      <g>
        <path class="st1" d="M483.32,96.49c-4.3-3.02-9.8-5.24-16.47-6.65-6.67-1.41-14.65-2.12-23.91-2.12s-17.24.71-23.91,2.12-12.16,3.63-16.47,6.65c-4.31,3.02-7.48,6.86-9.51,11.54-2.04,4.67-3.06,10.22-3.06,16.66s1.02,12,3.06,16.66c2.04,4.67,5.21,8.5,9.51,11.48,4.3,2.99,9.79,5.21,16.47,6.65,6.67,1.44,14.65,2.17,23.91,2.17s17.24-.73,23.91-2.17c6.67-1.44,12.16-3.66,16.47-6.65,4.3-2.99,7.48-6.82,9.51-11.48,2.04-4.67,3.06-10.22,3.06-16.66s-1.02-12-3.06-16.66-5.21-8.51-9.51-11.54ZM478.04,135.63c-1.38,3.02-3.55,5.49-6.51,7.4s-6.79,3.3-11.49,4.19c-4.7.89-10.4,1.33-17.11,1.33s-12.41-.44-17.11-1.33c-4.7-.89-8.53-2.28-11.49-4.19-2.95-1.91-5.12-4.37-6.51-7.4-1.39-3.02-2.07-6.67-2.07-10.95s.69-7.92,2.07-10.95c1.38-3.02,3.55-5.49,6.51-7.4,2.96-1.9,6.79-3.3,11.49-4.19,4.69-.89,10.4-1.33,17.11-1.33s12.41.44,17.11,1.33c4.7.89,8.53,2.28,11.49,4.19,2.95,1.91,5.12,4.37,6.51,7.4,1.39,3.02,2.07,6.67,2.07,10.95s-.69,7.92-2.07,10.95Z"/>
        <path class="st1" d="M588.46,146.08h-59.67c-1.33,0-2.41-1.08-2.41-2.41v-51.09c0-1.33-1.08-2.41-2.41-2.41h-10.96c-1.33,0-2.41,1.08-2.41,2.41v64.2c0,1.33,1.08,2.41,2.41,2.41h75.44c1.33,0,2.41-1.08,2.41-2.41v-8.3c0-1.33-1.08-2.41-2.41-2.41h0Z"/>
        <path class="st1" d="M688.51,90.18h-78.69c-1.33,0-2.41,1.08-2.41,2.41v64.2c0,1.33,1.08,2.41,2.41,2.41h10.96c1.33,0,2.41-1.08,2.41-2.41v-20.32c0-1.33,1.08-2.41,2.41-2.41h57.99c1.33,0,2.41-1.08,2.41-2.41v-8.3c0-1.33-1.08-2.41-2.41-2.41h-57.99c-1.33,0-2.41-1.08-2.41-2.41v-12.83c0-1.33,1.08-2.41,2.41-2.41h62.92c1.33,0,2.41-1.08,2.41-2.41v-8.3c0-1.33-1.08-2.41-2.41-2.41h0Z"/>
        <path class="st1" d="M375.84,131.13l-44.18-9.56c-1.5-.33-2.92.82-2.92,2.35v8.18c0,1.14.79,2.11,1.9,2.35l32.62,7.05v3.09c-2.3.46-4.83.9-7.59,1.33s-5.66.78-8.68,1.09c-3.02.3-6.08.53-9.17.69s-6.11.25-9.07.25c-5.32,0-10.17-.21-14.54-.64-4.37-.43-8.11-1.43-11.19-3.01-3.09-1.58-5.49-3.91-7.2-7-1.71-3.09-2.56-7.29-2.56-12.62,0-5.72.98-10.14,2.96-13.26,1.97-3.12,4.58-5.44,7.84-6.95,3.25-1.51,7.04-2.42,11.34-2.71,4.3-.3,8.76-.45,13.36-.45,6.77,0,12.85.25,18.24.74,5.39.5,10.02,1.03,13.9,1.63,3.25.53,6.24,1.11,8.98,1.74,1.52.35,2.95-.77,2.95-2.33v-8.25c0-1.11-.71-2.08-1.79-2.34-2.82-.68-6.03-1.32-9.65-1.91-3.75-.59-8.33-1.14-13.76-1.63-5.42-.49-11.72-.74-18.88-.74-7.89,0-14.99.48-21.3,1.43-6.31.96-11.68,2.76-16.13,5.42-4.44,2.67-7.86,6.36-10.26,11.09s-3.6,10.92-3.6,18.54,1.3,14.14,3.9,18.93c2.59,4.8,6.18,8.5,10.74,11.09,4.57,2.6,9.98,4.32,16.22,5.18,6.24.85,13.05,1.28,20.41,1.28,5.19,0,10.43-.27,15.73-.78,5.29-.53,10.19-1.17,14.69-1.92s8.41-1.53,11.73-2.31c2.15-.52,3.87-.96,5.15-1.33,1.03-.3,1.7-1.23,1.7-2.3v-19.01c0-1.14-.79-2.11-1.9-2.35v-.04h0Z"/>
      </g>
    </g>
    <g id="icon">
      <path class="st0" d="M-.34,159.2h67.55L156.5,2.02h-54.59c-8.07,0-15.58,4.59-19.87,12.16L-.34,159.2Z"/>
      <circle class="st1" cx="73.17" cy="89.42" r="29.31"/>
      <path class="st1" d="M258.99,159.2h-67.55L102.16,2.02h54.59c8.07,0,15.58,4.59,19.87,12.16l82.38,145.03h0Z"/>
    </g>
    <g id="TradeMark">
      <polygon class="st1" points="694.38 148.37 697.97 148.37 697.97 159.2 700.42 159.2 700.42 148.37 704 148.37 704 146.07 694.38 146.07 694.38 148.37"/>
      <polygon class="st1" points="716.78 146.07 712.89 155.95 712.83 155.95 708.9 146.07 705.79 146.07 705.79 159.2 708.19 159.2 708.19 152.14 708.11 149.92 708.18 149.92 711.89 159.2 713.81 159.2 717.53 149.92 717.59 149.92 717.52 152.14 717.52 159.2 719.9 159.2 719.9 146.07 716.78 146.07"/>
    </g>
  </g>
</svg>