<?xml version="1.0" encoding="UTF-8"?>
<svg id="AVA_Golf_Logo" xmlns="http://www.w3.org/2000/svg" xmlns:xlink="http://www.w3.org/1999/xlink" version="1.1" viewBox="0 0 720 166.3">
  <!-- Generator: Adobe Illustrator 30.2.1, SVG Export Plug-In . SVG Version: 2.1.1 Build 1)  -->
  <defs>
    <style>
      .st0 {
        fill: url(#linear-gradient);
      }

      .st1 {
        fill: #fff;
      }
    </style>
    <linearGradient id="linear-gradient" x1="81.7" y1="163.7" x2="81.7" y2="0" gradientUnits="userSpaceOnUse">
      <stop offset="0" stop-color="#fff"/>
      <stop offset="1" stop-color="#fff" stop-opacity="0"/>
    </linearGradient>
  </defs>
  <g id="side-by-side">
    <g>
      <g>
        <path class="st1" d="M367.2,1.5c-.5-.9-1.5-1.5-2.5-1.5h-35.9c-1,0-2,.6-2.5,1.5l-36.6,69.3c-1,1.9.4,4.2,2.5,4.2h16.8c1.1,0,2-.6,2.5-1.5l3.8-7.1c.5-.9,1.5-1.5,2.5-1.5h57.9c1.1,0,2,.6,2.5,1.5l3.8,7.1c.5.9,1.5,1.5,2.5,1.5h16.8c2.1,0,3.5-2.3,2.5-4.2L367.2,1.5ZM363.3,46.9h-33.1c-2.1,0-3.5-2.3-2.5-4.2l12.3-23.3c.5-.9,1.5-1.5,2.5-1.5h8.4c1,0,2,.6,2.5,1.5l12.4,23.3c1,1.9-.4,4.2-2.5,4.2Z"/>
        <path class="st1" d="M499.5,0h-16.7c-1,0-2,.6-2.5,1.5l-28.6,54c-.5.9-1.5,1.5-2.5,1.5h-8.4c-1,0-2-.6-2.5-1.5L409.7,1.5c-.5-.9-1.5-1.5-2.5-1.5h-16.7c-2.1,0-3.5,2.3-2.5,4.2l36.6,69.3c.5.9,1.5,1.5,2.5,1.5h35.8c1,0,2-.6,2.5-1.5L502,4.2c1-1.9-.4-4.2-2.5-4.2Z"/>
        <path class="st1" d="M563.5,1.5c-.5-.9-1.5-1.5-2.5-1.5h-35.9c-1,0-2,.6-2.5,1.5l-36.6,69.3c-1,1.9.4,4.2,2.5,4.2h16.8c1.1,0,2-.6,2.5-1.5l3.8-7.1c.5-.9,1.5-1.5,2.5-1.5h57.9c1.1,0,2,.6,2.5,1.5l3.8,7.1c.5.9,1.5,1.5,2.5,1.5h16.8c2.1,0,3.5-2.3,2.5-4.2L563.5,1.5ZM559.6,46.9h-33.1c-2.1,0-3.5-2.3-2.5-4.2l12.3-23.3c.5-.9,1.5-1.5,2.5-1.5h8.4c1,0,2,.6,2.5,1.5l12.4,23.3c1,1.9-.4,4.2-2.5,4.2Z"/>
      </g>
      <g>
        <path class="st1" d="M503.8,98.4c-4.5-3.2-10.2-5.5-17.2-6.9-7-1.5-15.3-2.2-24.9-2.2s-18,.7-24.9,2.2c-7,1.5-12.7,3.8-17.2,6.9-4.5,3.2-7.8,7.2-9.9,12-2.1,4.9-3.2,10.6-3.2,17.4s1.1,12.5,3.2,17.4c2.1,4.9,5.4,8.8,9.9,12,4.5,3.1,10.2,5.4,17.2,6.9,6.9,1.5,15.3,2.3,24.9,2.3s18-.8,24.9-2.3c6.9-1.5,12.7-3.8,17.2-6.9,4.5-3.1,7.8-7.1,9.9-12,2.1-4.9,3.2-10.6,3.2-17.4s-1.1-12.5-3.2-17.4c-2.1-4.9-5.4-8.9-9.9-12ZM498.3,139.2c-1.4,3.2-3.7,5.7-6.8,7.7-3.1,2-7.1,3.4-12,4.4-4.9.9-10.8,1.4-17.8,1.4s-12.9-.5-17.8-1.4c-4.9-.9-8.9-2.4-12-4.4-3.1-2-5.3-4.6-6.8-7.7-1.4-3.1-2.2-6.9-2.2-11.4s.7-8.2,2.2-11.4c1.4-3.2,3.7-5.7,6.8-7.7,3.1-2,7.1-3.4,12-4.4,4.9-.9,10.8-1.4,17.8-1.4s12.9.5,17.8,1.4c4.9.9,8.9,2.4,12,4.4,3.1,2,5.3,4.6,6.8,7.7,1.4,3.2,2.2,6.9,2.2,11.4s-.7,8.3-2.2,11.4Z"/>
        <path class="st1" d="M613.3,150.1h-62.1c-1.4,0-2.5-1.1-2.5-2.5v-53.2c0-1.4-1.1-2.5-2.5-2.5h-11.4c-1.4,0-2.5,1.1-2.5,2.5v66.9c0,1.4,1.1,2.5,2.5,2.5h78.6c1.4,0,2.5-1.1,2.5-2.5v-8.6c0-1.4-1.1-2.5-2.5-2.5Z"/>
        <path class="st1" d="M717.5,91.8h-82c-1.4,0-2.5,1.1-2.5,2.5v66.9c0,1.4,1.1,2.5,2.5,2.5h11.4c1.4,0,2.5-1.1,2.5-2.5v-21.2c0-1.4,1.1-2.5,2.5-2.5h60.4c1.4,0,2.5-1.1,2.5-2.5v-8.6c0-1.4-1.1-2.5-2.5-2.5h-60.4c-1.4,0-2.5-1.1-2.5-2.5v-13.4c0-1.4,1.1-2.5,2.5-2.5h65.5c1.4,0,2.5-1.1,2.5-2.5v-8.6c0-1.4-1.1-2.5-2.5-2.5Z"/>
        <path class="st1" d="M391.8,134.5l-46-10c-1.6-.3-3,.9-3,2.5v8.5c0,1.2.8,2.2,2,2.5l34,7.4v3.2c-2.4.5-5,.9-7.9,1.4-2.9.4-5.9.8-9,1.1-3.2.3-6.3.6-9.6.7-3.2.2-6.4.3-9.4.3-5.5,0-10.6-.2-15.1-.7-4.6-.4-8.4-1.5-11.7-3.1-3.2-1.6-5.7-4.1-7.5-7.3-1.8-3.2-2.7-7.6-2.7-13.1s1-10.6,3.1-13.8c2.1-3.3,4.8-5.7,8.2-7.2,3.4-1.6,7.3-2.5,11.8-2.8,4.5-.3,9.1-.5,13.9-.5,7.1,0,13.4.3,19,.8,5.6.5,10.4,1.1,14.5,1.7,3.4.6,6.5,1.2,9.3,1.8,1.6.4,3.1-.8,3.1-2.4v-8.6c0-1.2-.7-2.2-1.9-2.4-2.9-.7-6.3-1.4-10-2-3.9-.6-8.7-1.2-14.3-1.7-5.6-.5-12.2-.8-19.7-.8s-15.6.5-22.2,1.5c-6.6,1-12.2,2.9-16.8,5.6-4.6,2.8-8.2,6.6-10.7,11.6-2.5,4.9-3.7,11.4-3.7,19.3s1.4,14.7,4.1,19.7c2.7,5,6.4,8.9,11.2,11.6,4.8,2.7,10.4,4.5,16.9,5.4,6.5.9,13.6,1.3,21.3,1.3s10.9-.3,16.4-.8c5.5-.6,10.6-1.2,15.3-2,4.7-.8,8.8-1.6,12.2-2.4,2.2-.5,4-1,5.4-1.4,1.1-.3,1.8-1.3,1.8-2.4v-19.8c0-1.2-.8-2.2-2-2.5Z"/>
      </g>
    </g>
    <g>
      <path class="st1" d="M270.1,163.7h-70.4L106.8,0h56.9c8.4,0,16.2,4.8,20.7,12.7l85.8,151.1Z"/>
      <path class="st0" d="M0,163.7h70.4S163.4,0,163.4,0h-56.9c-8.4,0-16.2,4.8-20.7,12.7L0,163.7Z"/>
      <circle class="st1" cx="76.6" cy="91" r="30.5"/>
    </g>
  </g>
</svg>